<svg width="1440" height="280" viewBox="0 0 1440 280" fill="none" xmlns="http://www.w3.org/2000/svg">
<rect width="1440" height="280" fill="white"/>
<g clip-path="url(#clip0_505_2)">
<path d="M720 0H0V280H720V0Z" fill="#1F3A8A"/>
<path d="M14.5 15C14.5 15.1326 14.5527 15.2598 14.6464 15.3536C14.7402 15.4473 14.8674 15.5 15 15.5C15.1326 15.5 15.2598 15.4473 15.3536 15.3536C15.4473 15.2598 15.5 15.1326 15.5 15C15.5 14.8674 15.4473 14.7402 15.3536 14.6464C15.2598 14.5527 15.1326 14.5 15 14.5C14.8674 14.5 14.7402 14.5527 14.6464 14.6464C14.5527 14.7402 14.5 14.8674 14.5 15V15Z" stroke="#2177CC"/>
<path d="M30 30L0 60L30 30Z" stroke="#2177CC" stroke-width="3"/>
<path d="M16 74L14 76L16 74Z" stroke="#2177CC"/>
<path d="M12.5 105C12.5 105.663 12.7634 106.299 13.2322 106.768C13.7011 107.237 14.337 107.5 15 107.5C15.663 107.5 16.2989 107.237 16.7678 106.768C17.2366 106.299 17.5 105.663 17.5 105C17.5 104.337 17.2366 103.701 16.7678 103.232C16.2989 102.763 15.663 102.5 15 102.5C14.337 102.5 13.7011 102.763 13.2322 103.232C12.7634 103.701 12.5 104.337 12.5 105V105Z" stroke="#2177CC"/>
<path d="M18 132L12 138L18 132Z" stroke="#2177CC"/>
<path d="M12.5 165C12.5 165.663 12.7634 166.299 13.2322 166.768C13.7011 167.237 14.337 167.5 15 167.5C15.663 167.5 16.2989 167.237 16.7678 166.768C17.2366 166.299 17.5 165.663 17.5 165C17.5 164.337 17.2366 163.701 16.7678 163.232C16.2989 162.763 15.663 162.5 15 162.5C14.337 162.5 13.7011 162.763 13.2322 163.232C12.7634 163.701 12.5 164.337 12.5 165V165Z" stroke="#2177CC"/>
<path d="M18 192L12 198L18 192Z" stroke="#2177CC"/>
<path d="M12.5 225C12.5 225.663 12.7634 226.299 13.2322 226.768C13.7011 227.237 14.337 227.5 15 227.5C15.663 227.5 16.2989 227.237 16.7678 226.768C17.2366 226.299 17.5 225.663 17.5 225C17.5 224.337 17.2366 223.701 16.7678 223.232C16.2989 222.763 15.663 222.5 15 222.5C14.337 222.5 13.7011 222.763 13.2322 223.232C12.7634 223.701 12.5 224.337 12.5 225V225Z" stroke="#2177CC"/>
<path d="M18 252L12 258L18 252Z" stroke="#2177CC"/>
<path d="M42.5 15C42.5 15.663 42.7634 16.2989 43.2322 16.7678C43.7011 17.2366 44.337 17.5 45 17.5C45.663 17.5 46.2989 17.2366 46.7678 16.7678C47.2366 16.2989 47.5 15.663 47.5 15C47.5 14.337 47.2366 13.7011 46.7678 13.2322C46.2989 12.7634 45.663 12.5 45 12.5C44.337 12.5 43.7011 12.7634 43.2322 13.2322C42.7634 13.7011 42.5 14.337 42.5 15V15Z" stroke="#2177CC"/>
<path d="M42.5 45C42.5 45.663 42.7634 46.2989 43.2322 46.7678C43.7011 47.2366 44.337 47.5 45 47.5C45.663 47.5 46.2989 47.2366 46.7678 46.7678C47.2366 46.2989 47.5 45.663 47.5 45C47.5 44.337 47.2366 43.7011 46.7678 43.2322C46.2989 42.7634 45.663 42.5 45 42.5C44.337 42.5 43.7011 42.7634 43.2322 43.2322C42.7634 43.7011 42.5 44.337 42.5 45V45Z" stroke="#2177CC"/>
<path d="M43.5 75C43.5 75.3978 43.658 75.7794 43.9393 76.0607C44.2206 76.342 44.6022 76.5 45 76.5C45.3978 76.5 45.7794 76.342 46.0607 76.0607C46.342 75.7794 46.5 75.3978 46.5 75C46.5 74.6022 46.342 74.2206 46.0607 73.9393C45.7794 73.658 45.3978 73.5 45 73.5C44.6022 73.5 44.2206 73.658 43.9393 73.9393C43.658 74.2206 43.5 74.6022 43.5 75V75Z" stroke="#2177CC"/>
<path d="M43.5 105C43.5 105.398 43.658 105.779 43.9393 106.061C44.2206 106.342 44.6022 106.5 45 106.5C45.3978 106.5 45.7794 106.342 46.0607 106.061C46.342 105.779 46.5 105.398 46.5 105C46.5 104.602 46.342 104.221 46.0607 103.939C45.7794 103.658 45.3978 103.5 45 103.5C44.6022 103.5 44.2206 103.658 43.9393 103.939C43.658 104.221 43.5 104.602 43.5 105V105Z" stroke="#2177CC"/>
<path d="M48 132L42 138L48 132Z" stroke="#2177CC"/>
<path d="M48 162L42 168L48 162Z" stroke="#2177CC"/>
<path d="M46 194L44 196L46 194Z" stroke="#2177CC"/>
<path d="M44.5 225C44.5 225.133 44.5527 225.26 44.6464 225.354C44.7402 225.447 44.8674 225.5 45 225.5C45.1326 225.5 45.2598 225.447 45.3536 225.354C45.4473 225.26 45.5 225.133 45.5 225C45.5 224.867 45.4473 224.74 45.3536 224.646C45.2598 224.553 45.1326 224.5 45 224.5C44.8674 224.5 44.7402 224.553 44.6464 224.646C44.5527 224.74 44.5 224.867 44.5 225V225Z" stroke="#2177CC"/>
<path d="M48 252L42 258L48 252Z" stroke="#2177CC"/>
<path d="M73.5 15C73.5 15.3978 73.658 15.7794 73.9393 16.0607C74.2206 16.342 74.6022 16.5 75 16.5C75.3978 16.5 75.7794 16.342 76.0607 16.0607C76.342 15.7794 76.5 15.3978 76.5 15C76.5 14.6022 76.342 14.2206 76.0607 13.9393C75.7794 13.658 75.3978 13.5 75 13.5C74.6022 13.5 74.2206 13.658 73.9393 13.9393C73.658 14.2206 73.5 14.6022 73.5 15V15Z" stroke="#2177CC"/>
<path d="M78 42L72 48L78 42Z" stroke="#2177CC"/>
<path d="M78 72L72 78L78 72Z" stroke="#2177CC"/>
<path d="M76 104L74 106L76 104Z" stroke="#2177CC"/>
<path d="M78 132L72 138L78 132Z" stroke="#2177CC"/>
<path d="M72.5 165C72.5 165.663 72.7634 166.299 73.2322 166.768C73.7011 167.237 74.337 167.5 75 167.5C75.663 167.5 76.2989 167.237 76.7678 166.768C77.2366 166.299 77.5 165.663 77.5 165C77.5 164.337 77.2366 163.701 76.7678 163.232C76.2989 162.763 75.663 162.5 75 162.5C74.337 162.5 73.7011 162.763 73.2322 163.232C72.7634 163.701 72.5 164.337 72.5 165V165Z" stroke="#2177CC"/>
<path d="M72.5 195C72.5 195.663 72.7634 196.299 73.2322 196.768C73.7011 197.237 74.337 197.5 75 197.5C75.663 197.5 76.2989 197.237 76.7678 196.768C77.2366 196.299 77.5 195.663 77.5 195C77.5 194.337 77.2366 193.701 76.7678 193.232C76.2989 192.763 75.663 192.5 75 192.5C74.337 192.5 73.7011 192.763 73.2322 193.232C72.7634 193.701 72.5 194.337 72.5 195V195Z" stroke="#2177CC"/>
<path d="M72.5 225C72.5 225.663 72.7634 226.299 73.2322 226.768C73.7011 227.237 74.337 227.5 75 227.5C75.663 227.5 76.2989 227.237 76.7678 226.768C77.2366 226.299 77.5 225.663 77.5 225C77.5 224.337 77.2366 223.701 76.7678 223.232C76.2989 222.763 75.663 222.5 75 222.5C74.337 222.5 73.7011 222.763 73.2322 223.232C72.7634 223.701 72.5 224.337 72.5 225V225Z" stroke="#2177CC"/>
<path d="M78 252L72 258L78 252Z" stroke="#2177CC"/>
<path d="M90 270L60 300L90 270Z" stroke="#2177CC" stroke-width="3"/>
<path d="M102.5 15C102.5 15.663 102.763 16.2989 103.232 16.7678C103.701 17.2366 104.337 17.5 105 17.5C105.663 17.5 106.299 17.2366 106.768 16.7678C107.237 16.2989 107.5 15.663 107.5 15C107.5 14.337 107.237 13.7011 106.768 13.2322C106.299 12.7634 105.663 12.5 105 12.5C104.337 12.5 103.701 12.7634 103.232 13.2322C102.763 13.7011 102.5 14.337 102.5 15V15Z" stroke="#2177CC"/>
<path d="M102.5 45C102.5 45.663 102.763 46.2989 103.232 46.7678C103.701 47.2366 104.337 47.5 105 47.5C105.663 47.5 106.299 47.2366 106.768 46.7678C107.237 46.2989 107.5 45.663 107.5 45C107.5 44.337 107.237 43.7011 106.768 43.2322C106.299 42.7634 105.663 42.5 105 42.5C104.337 42.5 103.701 42.7634 103.232 43.2322C102.763 43.7011 102.5 44.337 102.5 45V45Z" stroke="#2177CC"/>
<path d="M103.5 75C103.5 75.3978 103.658 75.7794 103.939 76.0607C104.221 76.342 104.602 76.5 105 76.5C105.398 76.5 105.779 76.342 106.061 76.0607C106.342 75.7794 106.5 75.3978 106.5 75C106.5 74.6022 106.342 74.2206 106.061 73.9393C105.779 73.658 105.398 73.5 105 73.5C104.602 73.5 104.221 73.658 103.939 73.9393C103.658 74.2206 103.5 74.6022 103.5 75V75Z" stroke="#2177CC"/>
<path d="M102.5 105C102.5 105.663 102.763 106.299 103.232 106.768C103.701 107.237 104.337 107.5 105 107.5C105.663 107.5 106.299 107.237 106.768 106.768C107.237 106.299 107.5 105.663 107.5 105C107.5 104.337 107.237 103.701 106.768 103.232C106.299 102.763 105.663 102.5 105 102.5C104.337 102.5 103.701 102.763 103.232 103.232C102.763 103.701 102.5 104.337 102.5 105V105Z" stroke="#2177CC"/>
<path d="M106 134L104 136L106 134Z" stroke="#2177CC"/>
<path d="M103.5 165C103.5 165.398 103.658 165.779 103.939 166.061C104.221 166.342 104.602 166.5 105 166.5C105.398 166.5 105.779 166.342 106.061 166.061C106.342 165.779 106.5 165.398 106.5 165C106.5 164.602 106.342 164.221 106.061 163.939C105.779 163.658 105.398 163.5 105 163.5C104.602 163.5 104.221 163.658 103.939 163.939C103.658 164.221 103.5 164.602 103.5 165V165Z" stroke="#2177CC"/>
<path d="M108 192L102 198L108 192Z" stroke="#2177CC"/>
<path d="M106 224L104 226L106 224Z" stroke="#2177CC"/>
<path d="M102.5 255C102.5 255.663 102.763 256.299 103.232 256.768C103.701 257.237 104.337 257.5 105 257.5C105.663 257.5 106.299 257.237 106.768 256.768C107.237 256.299 107.5 255.663 107.5 255C107.5 254.337 107.237 253.701 106.768 253.232C106.299 252.763 105.663 252.5 105 252.5C104.337 252.5 103.701 252.763 103.232 253.232C102.763 253.701 102.5 254.337 102.5 255V255Z" stroke="#2177CC"/>
<path d="M132.5 15C132.5 15.663 132.763 16.2989 133.232 16.7678C133.701 17.2366 134.337 17.5 135 17.5C135.663 17.5 136.299 17.2366 136.768 16.7678C137.237 16.2989 137.5 15.663 137.5 15C137.5 14.337 137.237 13.7011 136.768 13.2322C136.299 12.7634 135.663 12.5 135 12.5C134.337 12.5 133.701 12.7634 133.232 13.2322C132.763 13.7011 132.5 14.337 132.5 15V15Z" stroke="#2177CC"/>
<path d="M133.5 45C133.5 45.3978 133.658 45.7794 133.939 46.0607C134.221 46.342 134.602 46.5 135 46.5C135.398 46.5 135.779 46.342 136.061 46.0607C136.342 45.7794 136.5 45.3978 136.5 45C136.5 44.6022 136.342 44.2206 136.061 43.9393C135.779 43.658 135.398 43.5 135 43.5C134.602 43.5 134.221 43.658 133.939 43.9393C133.658 44.2206 133.5 44.6022 133.5 45V45Z" stroke="#2177CC"/>
<path d="M132.5 75C132.5 75.663 132.763 76.2989 133.232 76.7678C133.701 77.2366 134.337 77.5 135 77.5C135.663 77.5 136.299 77.2366 136.768 76.7678C137.237 76.2989 137.5 75.663 137.5 75C137.5 74.337 137.237 73.7011 136.768 73.2322C136.299 72.7634 135.663 72.5 135 72.5C134.337 72.5 133.701 72.7634 133.232 73.2322C132.763 73.7011 132.5 74.337 132.5 75V75Z" stroke="#2177CC"/>
<path d="M150 90L120 120L150 90Z" stroke="#2177CC" stroke-width="3"/>
<path d="M138 132L132 138L138 132Z" stroke="#2177CC"/>
<path d="M136 164L134 166L136 164Z" stroke="#2177CC"/>
<path d="M136 194L134 196L136 194Z" stroke="#2177CC"/>
<path d="M138 222L132 228L138 222Z" stroke="#2177CC"/>
<path d="M138 252L132 258L138 252Z" stroke="#2177CC"/>
<path d="M162.5 15C162.5 15.663 162.763 16.2989 163.232 16.7678C163.701 17.2366 164.337 17.5 165 17.5C165.663 17.5 166.299 17.2366 166.768 16.7678C167.237 16.2989 167.5 15.663 167.5 15C167.5 14.337 167.237 13.7011 166.768 13.2322C166.299 12.7634 165.663 12.5 165 12.5C164.337 12.5 163.701 12.7634 163.232 13.2322C162.763 13.7011 162.5 14.337 162.5 15V15Z" stroke="#2177CC"/>
<path d="M168 42L162 48L168 42Z" stroke="#2177CC"/>
<path d="M168 72L162 78L168 72Z" stroke="#2177CC"/>
<path d="M162.5 105C162.5 105.663 162.763 106.299 163.232 106.768C163.701 107.237 164.337 107.5 165 107.5C165.663 107.5 166.299 107.237 166.768 106.768C167.237 106.299 167.5 105.663 167.5 105C167.5 104.337 167.237 103.701 166.768 103.232C166.299 102.763 165.663 102.5 165 102.5C164.337 102.5 163.701 102.763 163.232 103.232C162.763 103.701 162.5 104.337 162.5 105V105Z" stroke="#2177CC"/>
<path d="M166 134L164 136L166 134Z" stroke="#2177CC"/>
<path d="M168 162L162 168L168 162Z" stroke="#2177CC"/>
<path d="M180 180L150 210L180 180Z" stroke="#2177CC" stroke-width="3"/>
<path d="M162.5 225C162.5 225.663 162.763 226.299 163.232 226.768C163.701 227.237 164.337 227.5 165 227.5C165.663 227.5 166.299 227.237 166.768 226.768C167.237 226.299 167.5 225.663 167.5 225C167.5 224.337 167.237 223.701 166.768 223.232C166.299 222.763 165.663 222.5 165 222.5C164.337 222.5 163.701 222.763 163.232 223.232C162.763 223.701 162.5 224.337 162.5 225V225Z" stroke="#2177CC"/>
<path d="M166 254L164 256L166 254Z" stroke="#2177CC"/>
<path d="M210 0L180 30L210 0Z" stroke="#2177CC" stroke-width="3"/>
<path d="M192.5 45C192.5 45.663 192.763 46.2989 193.232 46.7678C193.701 47.2366 194.337 47.5 195 47.5C195.663 47.5 196.299 47.2366 196.768 46.7678C197.237 46.2989 197.5 45.663 197.5 45C197.5 44.337 197.237 43.7011 196.768 43.2322C196.299 42.7634 195.663 42.5 195 42.5C194.337 42.5 193.701 42.7634 193.232 43.2322C192.763 43.7011 192.5 44.337 192.5 45V45Z" stroke="#2177CC"/>
<path d="M198 72L192 78L198 72Z" stroke="#2177CC"/>
<path d="M194.5 105C194.5 105.133 194.553 105.26 194.646 105.354C194.74 105.447 194.867 105.5 195 105.5C195.133 105.5 195.26 105.447 195.354 105.354C195.447 105.26 195.5 105.133 195.5 105C195.5 104.867 195.447 104.74 195.354 104.646C195.26 104.553 195.133 104.5 195 104.5C194.867 104.5 194.74 104.553 194.646 104.646C194.553 104.74 194.5 104.867 194.5 105V105Z" stroke="#2177CC"/>
<path d="M198 132L192 138L198 132Z" stroke="#2177CC"/>
<path d="M198 162L192 168L198 162Z" stroke="#2177CC"/>
<path d="M196 194L194 196L196 194Z" stroke="#2177CC"/>
<path d="M196 224L194 226L196 224Z" stroke="#2177CC"/>
<path d="M196 254L194 256L196 254Z" stroke="#2177CC"/>
<path d="M228 12L222 18L228 12Z" stroke="#2177CC"/>
<path d="M223.5 45C223.5 45.3978 223.658 45.7794 223.939 46.0607C224.221 46.342 224.602 46.5 225 46.5C225.398 46.5 225.779 46.342 226.061 46.0607C226.342 45.7794 226.5 45.3978 226.5 45C226.5 44.6022 226.342 44.2206 226.061 43.9393C225.779 43.658 225.398 43.5 225 43.5C224.602 43.5 224.221 43.658 223.939 43.9393C223.658 44.2206 223.5 44.6022 223.5 45V45Z" stroke="#2177CC"/>
<path d="M226 74L224 76L226 74Z" stroke="#2177CC"/>
<path d="M228 102L222 108L228 102Z" stroke="#2177CC"/>
<path d="M226 134L224 136L226 134Z" stroke="#2177CC"/>
<path d="M228 162L222 168L228 162Z" stroke="#2177CC"/>
<path d="M228 192L222 198L228 192Z" stroke="#2177CC"/>
<path d="M222.5 225C222.5 225.663 222.763 226.299 223.232 226.768C223.701 227.237 224.337 227.5 225 227.5C225.663 227.5 226.299 227.237 226.768 226.768C227.237 226.299 227.5 225.663 227.5 225C227.5 224.337 227.237 223.701 226.768 223.232C226.299 222.763 225.663 222.5 225 222.5C224.337 222.5 223.701 222.763 223.232 223.232C222.763 223.701 222.5 224.337 222.5 225V225Z" stroke="#2177CC"/>
<path d="M228 252L222 258L228 252Z" stroke="#2177CC"/>
<path d="M240 270L210 300L240 270Z" stroke="#2177CC" stroke-width="3"/>
<path d="M252.5 15C252.5 15.663 252.763 16.2989 253.232 16.7678C253.701 17.2366 254.337 17.5 255 17.5C255.663 17.5 256.299 17.2366 256.768 16.7678C257.237 16.2989 257.5 15.663 257.5 15C257.5 14.337 257.237 13.7011 256.768 13.2322C256.299 12.7634 255.663 12.5 255 12.5C254.337 12.5 253.701 12.7634 253.232 13.2322C252.763 13.7011 252.5 14.337 252.5 15V15Z" stroke="#2177CC"/>
<path d="M258 42L252 48L258 42Z" stroke="#2177CC"/>
<path d="M258 72L252 78L258 72Z" stroke="#2177CC"/>
<path d="M254.5 105C254.5 105.133 254.553 105.26 254.646 105.354C254.74 105.447 254.867 105.5 255 105.5C255.133 105.5 255.26 105.447 255.354 105.354C255.447 105.26 255.5 105.133 255.5 105C255.5 104.867 255.447 104.74 255.354 104.646C255.26 104.553 255.133 104.5 255 104.5C254.867 104.5 254.74 104.553 254.646 104.646C254.553 104.74 254.5 104.867 254.5 105V105Z" stroke="#2177CC"/>
<path d="M258 132L252 138L258 132Z" stroke="#2177CC"/>
<path d="M252.5 165C252.5 165.663 252.763 166.299 253.232 166.768C253.701 167.237 254.337 167.5 255 167.5C255.663 167.5 256.299 167.237 256.768 166.768C257.237 166.299 257.5 165.663 257.5 165C257.5 164.337 257.237 163.701 256.768 163.232C256.299 162.763 255.663 162.5 255 162.5C254.337 162.5 253.701 162.763 253.232 163.232C252.763 163.701 252.5 164.337 252.5 165V165Z" stroke="#2177CC"/>
<path d="M254.5 195C254.5 195.133 254.553 195.26 254.646 195.354C254.74 195.447 254.867 195.5 255 195.5C255.133 195.5 255.26 195.447 255.354 195.354C255.447 195.26 255.5 195.133 255.5 195C255.5 194.867 255.447 194.74 255.354 194.646C255.26 194.553 255.133 194.5 255 194.5C254.867 194.5 254.74 194.553 254.646 194.646C254.553 194.74 254.5 194.867 254.5 195V195Z" stroke="#2177CC"/>
<path d="M252.5 225C252.5 225.663 252.763 226.299 253.232 226.768C253.701 227.237 254.337 227.5 255 227.5C255.663 227.5 256.299 227.237 256.768 226.768C257.237 226.299 257.5 225.663 257.5 225C257.5 224.337 257.237 223.701 256.768 223.232C256.299 222.763 255.663 222.5 255 222.5C254.337 222.5 253.701 222.763 253.232 223.232C252.763 223.701 252.5 224.337 252.5 225V225Z" stroke="#2177CC"/>
<path d="M252.5 255C252.5 255.663 252.763 256.299 253.232 256.768C253.701 257.237 254.337 257.5 255 257.5C255.663 257.5 256.299 257.237 256.768 256.768C257.237 256.299 257.5 255.663 257.5 255C257.5 254.337 257.237 253.701 256.768 253.232C256.299 252.763 255.663 252.5 255 252.5C254.337 252.5 253.701 252.763 253.232 253.232C252.763 253.701 252.5 254.337 252.5 255V255Z" stroke="#2177CC"/>
<path d="M286 14L284 16L286 14Z" stroke="#2177CC"/>
<path d="M288 42L282 48L288 42Z" stroke="#2177CC"/>
<path d="M300 60L270 90L300 60Z" stroke="#2177CC" stroke-width="3"/>
<path d="M282.5 105C282.5 105.663 282.763 106.299 283.232 106.768C283.701 107.237 284.337 107.5 285 107.5C285.663 107.5 286.299 107.237 286.768 106.768C287.237 106.299 287.5 105.663 287.5 105C287.5 104.337 287.237 103.701 286.768 103.232C286.299 102.763 285.663 102.5 285 102.5C284.337 102.5 283.701 102.763 283.232 103.232C282.763 103.701 282.5 104.337 282.5 105V105Z" stroke="#2177CC"/>
<path d="M282.5 135C282.5 135.663 282.763 136.299 283.232 136.768C283.701 137.237 284.337 137.5 285 137.5C285.663 137.5 286.299 137.237 286.768 136.768C287.237 136.299 287.5 135.663 287.5 135C287.5 134.337 287.237 133.701 286.768 133.232C286.299 132.763 285.663 132.5 285 132.5C284.337 132.5 283.701 132.763 283.232 133.232C282.763 133.701 282.5 134.337 282.5 135V135Z" stroke="#2177CC"/>
<path d="M282.5 165C282.5 165.663 282.763 166.299 283.232 166.768C283.701 167.237 284.337 167.5 285 167.5C285.663 167.5 286.299 167.237 286.768 166.768C287.237 166.299 287.5 165.663 287.5 165C287.5 164.337 287.237 163.701 286.768 163.232C286.299 162.763 285.663 162.5 285 162.5C284.337 162.5 283.701 162.763 283.232 163.232C282.763 163.701 282.5 164.337 282.5 165V165Z" stroke="#2177CC"/>
<path d="M282.5 195C282.5 195.663 282.763 196.299 283.232 196.768C283.701 197.237 284.337 197.5 285 197.5C285.663 197.5 286.299 197.237 286.768 196.768C287.237 196.299 287.5 195.663 287.5 195C287.5 194.337 287.237 193.701 286.768 193.232C286.299 192.763 285.663 192.5 285 192.5C284.337 192.5 283.701 192.763 283.232 193.232C282.763 193.701 282.5 194.337 282.5 195V195Z" stroke="#2177CC"/>
<path d="M286 224L284 226L286 224Z" stroke="#2177CC"/>
<path d="M288 252L282 258L288 252Z" stroke="#2177CC"/>
<path d="M314.5 15C314.5 15.1326 314.553 15.2598 314.646 15.3536C314.74 15.4473 314.867 15.5 315 15.5C315.133 15.5 315.26 15.4473 315.354 15.3536C315.447 15.2598 315.5 15.1326 315.5 15C315.5 14.8674 315.447 14.7402 315.354 14.6464C315.26 14.5527 315.133 14.5 315 14.5C314.867 14.5 314.74 14.5527 314.646 14.6464C314.553 14.7402 314.5 14.8674 314.5 15V15Z" stroke="#2177CC"/>
<path d="M312.5 45C312.5 45.663 312.763 46.2989 313.232 46.7678C313.701 47.2366 314.337 47.5 315 47.5C315.663 47.5 316.299 47.2366 316.768 46.7678C317.237 46.2989 317.5 45.663 317.5 45C317.5 44.337 317.237 43.7011 316.768 43.2322C316.299 42.7634 315.663 42.5 315 42.5C314.337 42.5 313.701 42.7634 313.232 43.2322C312.763 43.7011 312.5 44.337 312.5 45V45Z" stroke="#2177CC"/>
<path d="M318 72L312 78L318 72Z" stroke="#2177CC"/>
<path d="M313.5 105C313.5 105.398 313.658 105.779 313.939 106.061C314.221 106.342 314.602 106.5 315 106.5C315.398 106.5 315.779 106.342 316.061 106.061C316.342 105.779 316.5 105.398 316.5 105C316.5 104.602 316.342 104.221 316.061 103.939C315.779 103.658 315.398 103.5 315 103.5C314.602 103.5 314.221 103.658 313.939 103.939C313.658 104.221 313.5 104.602 313.5 105V105Z" stroke="#2177CC"/>
<path d="M318 132L312 138L318 132Z" stroke="#2177CC"/>
<path d="M316 164L314 166L316 164Z" stroke="#2177CC"/>
<path d="M318 192L312 198L318 192Z" stroke="#2177CC"/>
<path d="M312.5 225C312.5 225.663 312.763 226.299 313.232 226.768C313.701 227.237 314.337 227.5 315 227.5C315.663 227.5 316.299 227.237 316.768 226.768C317.237 226.299 317.5 225.663 317.5 225C317.5 224.337 317.237 223.701 316.768 223.232C316.299 222.763 315.663 222.5 315 222.5C314.337 222.5 313.701 222.763 313.232 223.232C312.763 223.701 312.5 224.337 312.5 225V225Z" stroke="#2177CC"/>
<path d="M318 252L312 258L318 252Z" stroke="#2177CC"/>
<path d="M343.5 15C343.5 15.3978 343.658 15.7794 343.939 16.0607C344.221 16.342 344.602 16.5 345 16.5C345.398 16.5 345.779 16.342 346.061 16.0607C346.342 15.7794 346.5 15.3978 346.5 15C346.5 14.6022 346.342 14.2206 346.061 13.9393C345.779 13.658 345.398 13.5 345 13.5C344.602 13.5 344.221 13.658 343.939 13.9393C343.658 14.2206 343.5 14.6022 343.5 15V15Z" stroke="#2177CC"/>
<path d="M346 44L344 46L346 44Z" stroke="#2177CC"/>
<path d="M348 72L342 78L348 72Z" stroke="#2177CC"/>
<path d="M342.5 105C342.5 105.663 342.763 106.299 343.232 106.768C343.701 107.237 344.337 107.5 345 107.5C345.663 107.5 346.299 107.237 346.768 106.768C347.237 106.299 347.5 105.663 347.5 105C347.5 104.337 347.237 103.701 346.768 103.232C346.299 102.763 345.663 102.5 345 102.5C344.337 102.5 343.701 102.763 343.232 103.232C342.763 103.701 342.5 104.337 342.5 105V105Z" stroke="#2177CC"/>
<path d="M344.5 135C344.5 135.133 344.553 135.26 344.646 135.354C344.74 135.447 344.867 135.5 345 135.5C345.133 135.5 345.26 135.447 345.354 135.354C345.447 135.26 345.5 135.133 345.5 135C345.5 134.867 345.447 134.74 345.354 134.646C345.26 134.553 345.133 134.5 345 134.5C344.867 134.5 344.74 134.553 344.646 134.646C344.553 134.74 344.5 134.867 344.5 135V135Z" stroke="#2177CC"/>
<path d="M344.5 165C344.5 165.133 344.553 165.26 344.646 165.354C344.74 165.447 344.867 165.5 345 165.5C345.133 165.5 345.26 165.447 345.354 165.354C345.447 165.26 345.5 165.133 345.5 165C345.5 164.867 345.447 164.74 345.354 164.646C345.26 164.553 345.133 164.5 345 164.5C344.867 164.5 344.74 164.553 344.646 164.646C344.553 164.74 344.5 164.867 344.5 165V165Z" stroke="#2177CC"/>
<path d="M348 192L342 198L348 192Z" stroke="#2177CC"/>
<path d="M342.5 225C342.5 225.663 342.763 226.299 343.232 226.768C343.701 227.237 344.337 227.5 345 227.5C345.663 227.5 346.299 227.237 346.768 226.768C347.237 226.299 347.5 225.663 347.5 225C347.5 224.337 347.237 223.701 346.768 223.232C346.299 222.763 345.663 222.5 345 222.5C344.337 222.5 343.701 222.763 343.232 223.232C342.763 223.701 342.5 224.337 342.5 225V225Z" stroke="#2177CC"/>
<path d="M360 240L330 270L360 240Z" stroke="#2177CC" stroke-width="3"/>
<path d="M374.5 15C374.5 15.1326 374.553 15.2598 374.646 15.3536C374.74 15.4473 374.867 15.5 375 15.5C375.133 15.5 375.26 15.4473 375.354 15.3536C375.447 15.2598 375.5 15.1326 375.5 15C375.5 14.8674 375.447 14.7402 375.354 14.6464C375.26 14.5527 375.133 14.5 375 14.5C374.867 14.5 374.74 14.5527 374.646 14.6464C374.553 14.7402 374.5 14.8674 374.5 15V15Z" stroke="#2177CC"/>
<path d="M390 30L360 60L390 30Z" stroke="#2177CC" stroke-width="3"/>
<path d="M376 74L374 76L376 74Z" stroke="#2177CC"/>
<path d="M372.5 105C372.5 105.663 372.763 106.299 373.232 106.768C373.701 107.237 374.337 107.5 375 107.5C375.663 107.5 376.299 107.237 376.768 106.768C377.237 106.299 377.5 105.663 377.5 105C377.5 104.337 377.237 103.701 376.768 103.232C376.299 102.763 375.663 102.5 375 102.5C374.337 102.5 373.701 102.763 373.232 103.232C372.763 103.701 372.5 104.337 372.5 105V105Z" stroke="#2177CC"/>
<path d="M378 132L372 138L378 132Z" stroke="#2177CC"/>
<path d="M372.5 165C372.5 165.663 372.763 166.299 373.232 166.768C373.701 167.237 374.337 167.5 375 167.5C375.663 167.5 376.299 167.237 376.768 166.768C377.237 166.299 377.5 165.663 377.5 165C377.5 164.337 377.237 163.701 376.768 163.232C376.299 162.763 375.663 162.5 375 162.5C374.337 162.5 373.701 162.763 373.232 163.232C372.763 163.701 372.5 164.337 372.5 165V165Z" stroke="#2177CC"/>
<path d="M378 192L372 198L378 192Z" stroke="#2177CC"/>
<path d="M372.5 225C372.5 225.663 372.763 226.299 373.232 226.768C373.701 227.237 374.337 227.5 375 227.5C375.663 227.5 376.299 227.237 376.768 226.768C377.237 226.299 377.5 225.663 377.5 225C377.5 224.337 377.237 223.701 376.768 223.232C376.299 222.763 375.663 222.5 375 222.5C374.337 222.5 373.701 222.763 373.232 223.232C372.763 223.701 372.5 224.337 372.5 225V225Z" stroke="#2177CC"/>
<path d="M378 252L372 258L378 252Z" stroke="#2177CC"/>
<path d="M402.5 15C402.5 15.663 402.763 16.2989 403.232 16.7678C403.701 17.2366 404.337 17.5 405 17.5C405.663 17.5 406.299 17.2366 406.768 16.7678C407.237 16.2989 407.5 15.663 407.5 15C407.5 14.337 407.237 13.7011 406.768 13.2322C406.299 12.7634 405.663 12.5 405 12.5C404.337 12.5 403.701 12.7634 403.232 13.2322C402.763 13.7011 402.5 14.337 402.5 15V15Z" stroke="#2177CC"/>
<path d="M402.5 45C402.5 45.663 402.763 46.2989 403.232 46.7678C403.701 47.2366 404.337 47.5 405 47.5C405.663 47.5 406.299 47.2366 406.768 46.7678C407.237 46.2989 407.5 45.663 407.5 45C407.5 44.337 407.237 43.7011 406.768 43.2322C406.299 42.7634 405.663 42.5 405 42.5C404.337 42.5 403.701 42.7634 403.232 43.2322C402.763 43.7011 402.5 44.337 402.5 45V45Z" stroke="#2177CC"/>
<path d="M403.5 75C403.5 75.3978 403.658 75.7794 403.939 76.0607C404.221 76.342 404.602 76.5 405 76.5C405.398 76.5 405.779 76.342 406.061 76.0607C406.342 75.7794 406.5 75.3978 406.5 75C406.5 74.6022 406.342 74.2206 406.061 73.9393C405.779 73.658 405.398 73.5 405 73.5C404.602 73.5 404.221 73.658 403.939 73.9393C403.658 74.2206 403.5 74.6022 403.5 75V75Z" stroke="#2177CC"/>
<path d="M403.5 105C403.5 105.398 403.658 105.779 403.939 106.061C404.221 106.342 404.602 106.5 405 106.5C405.398 106.5 405.779 106.342 406.061 106.061C406.342 105.779 406.5 105.398 406.5 105C406.5 104.602 406.342 104.221 406.061 103.939C405.779 103.658 405.398 103.5 405 103.5C404.602 103.5 404.221 103.658 403.939 103.939C403.658 104.221 403.5 104.602 403.5 105V105Z" stroke="#2177CC"/>
<path d="M408 132L402 138L408 132Z" stroke="#2177CC"/>
<path d="M408 162L402 168L408 162Z" stroke="#2177CC"/>
<path d="M406 194L404 196L406 194Z" stroke="#2177CC"/>
<path d="M404.5 225C404.5 225.133 404.553 225.26 404.646 225.354C404.74 225.447 404.867 225.5 405 225.5C405.133 225.5 405.26 225.447 405.354 225.354C405.447 225.26 405.5 225.133 405.5 225C405.5 224.867 405.447 224.74 405.354 224.646C405.26 224.553 405.133 224.5 405 224.5C404.867 224.5 404.74 224.553 404.646 224.646C404.553 224.74 404.5 224.867 404.5 225V225Z" stroke="#2177CC"/>
<path d="M408 252L402 258L408 252Z" stroke="#2177CC"/>
<path d="M433.5 15C433.5 15.3978 433.658 15.7794 433.939 16.0607C434.221 16.342 434.602 16.5 435 16.5C435.398 16.5 435.779 16.342 436.061 16.0607C436.342 15.7794 436.5 15.3978 436.5 15C436.5 14.6022 436.342 14.2206 436.061 13.9393C435.779 13.658 435.398 13.5 435 13.5C434.602 13.5 434.221 13.658 433.939 13.9393C433.658 14.2206 433.5 14.6022 433.5 15V15Z" stroke="#2177CC"/>
<path d="M438 42L432 48L438 42Z" stroke="#2177CC"/>
<path d="M438 72L432 78L438 72Z" stroke="#2177CC"/>
<path d="M436 104L434 106L436 104Z" stroke="#2177CC"/>
<path d="M438 132L432 138L438 132Z" stroke="#2177CC"/>
<path d="M432.5 165C432.5 165.663 432.763 166.299 433.232 166.768C433.701 167.237 434.337 167.5 435 167.5C435.663 167.5 436.299 167.237 436.768 166.768C437.237 166.299 437.5 165.663 437.5 165C437.5 164.337 437.237 163.701 436.768 163.232C436.299 162.763 435.663 162.5 435 162.5C434.337 162.5 433.701 162.763 433.232 163.232C432.763 163.701 432.5 164.337 432.5 165V165Z" stroke="#2177CC"/>
<path d="M432.5 195C432.5 195.663 432.763 196.299 433.232 196.768C433.701 197.237 434.337 197.5 435 197.5C435.663 197.5 436.299 197.237 436.768 196.768C437.237 196.299 437.5 195.663 437.5 195C437.5 194.337 437.237 193.701 436.768 193.232C436.299 192.763 435.663 192.5 435 192.5C434.337 192.5 433.701 192.763 433.232 193.232C432.763 193.701 432.5 194.337 432.5 195V195Z" stroke="#2177CC"/>
<path d="M432.5 225C432.5 225.663 432.763 226.299 433.232 226.768C433.701 227.237 434.337 227.5 435 227.5C435.663 227.5 436.299 227.237 436.768 226.768C437.237 226.299 437.5 225.663 437.5 225C437.5 224.337 437.237 223.701 436.768 223.232C436.299 222.763 435.663 222.5 435 222.5C434.337 222.5 433.701 222.763 433.232 223.232C432.763 223.701 432.5 224.337 432.5 225V225Z" stroke="#2177CC"/>
<path d="M438 252L432 258L438 252Z" stroke="#2177CC"/>
<path d="M450 270L420 300L450 270Z" stroke="#2177CC" stroke-width="3"/>
<path d="M462.5 15C462.5 15.663 462.763 16.2989 463.232 16.7678C463.701 17.2366 464.337 17.5 465 17.5C465.663 17.5 466.299 17.2366 466.768 16.7678C467.237 16.2989 467.5 15.663 467.5 15C467.5 14.337 467.237 13.7011 466.768 13.2322C466.299 12.7634 465.663 12.5 465 12.5C464.337 12.5 463.701 12.7634 463.232 13.2322C462.763 13.7011 462.5 14.337 462.5 15V15Z" stroke="#2177CC"/>
<path d="M462.5 45C462.5 45.663 462.763 46.2989 463.232 46.7678C463.701 47.2366 464.337 47.5 465 47.5C465.663 47.5 466.299 47.2366 466.768 46.7678C467.237 46.2989 467.5 45.663 467.5 45C467.5 44.337 467.237 43.7011 466.768 43.2322C466.299 42.7634 465.663 42.5 465 42.5C464.337 42.5 463.701 42.7634 463.232 43.2322C462.763 43.7011 462.5 44.337 462.5 45V45Z" stroke="#2177CC"/>
<path d="M463.5 75C463.5 75.3978 463.658 75.7794 463.939 76.0607C464.221 76.342 464.602 76.5 465 76.5C465.398 76.5 465.779 76.342 466.061 76.0607C466.342 75.7794 466.5 75.3978 466.5 75C466.5 74.6022 466.342 74.2206 466.061 73.9393C465.779 73.658 465.398 73.5 465 73.5C464.602 73.5 464.221 73.658 463.939 73.9393C463.658 74.2206 463.5 74.6022 463.5 75V75Z" stroke="#2177CC"/>
<path d="M462.5 105C462.5 105.663 462.763 106.299 463.232 106.768C463.701 107.237 464.337 107.5 465 107.5C465.663 107.5 466.299 107.237 466.768 106.768C467.237 106.299 467.5 105.663 467.5 105C467.5 104.337 467.237 103.701 466.768 103.232C466.299 102.763 465.663 102.5 465 102.5C464.337 102.5 463.701 102.763 463.232 103.232C462.763 103.701 462.5 104.337 462.5 105V105Z" stroke="#2177CC"/>
<path d="M466 134L464 136L466 134Z" stroke="#2177CC"/>
<path d="M463.5 165C463.5 165.398 463.658 165.779 463.939 166.061C464.221 166.342 464.602 166.5 465 166.5C465.398 166.5 465.779 166.342 466.061 166.061C466.342 165.779 466.5 165.398 466.5 165C466.5 164.602 466.342 164.221 466.061 163.939C465.779 163.658 465.398 163.5 465 163.5C464.602 163.5 464.221 163.658 463.939 163.939C463.658 164.221 463.5 164.602 463.5 165V165Z" stroke="#2177CC"/>
<path d="M468 192L462 198L468 192Z" stroke="#2177CC"/>
<path d="M466 224L464 226L466 224Z" stroke="#2177CC"/>
<path d="M462.5 255C462.5 255.663 462.763 256.299 463.232 256.768C463.701 257.237 464.337 257.5 465 257.5C465.663 257.5 466.299 257.237 466.768 256.768C467.237 256.299 467.5 255.663 467.5 255C467.5 254.337 467.237 253.701 466.768 253.232C466.299 252.763 465.663 252.5 465 252.5C464.337 252.5 463.701 252.763 463.232 253.232C462.763 253.701 462.5 254.337 462.5 255V255Z" stroke="#2177CC"/>
<path d="M492.5 15C492.5 15.663 492.763 16.2989 493.232 16.7678C493.701 17.2366 494.337 17.5 495 17.5C495.663 17.5 496.299 17.2366 496.768 16.7678C497.237 16.2989 497.5 15.663 497.5 15C497.5 14.337 497.237 13.7011 496.768 13.2322C496.299 12.7634 495.663 12.5 495 12.5C494.337 12.5 493.701 12.7634 493.232 13.2322C492.763 13.7011 492.5 14.337 492.5 15V15Z" stroke="#2177CC"/>
<path d="M493.5 45C493.5 45.3978 493.658 45.7794 493.939 46.0607C494.221 46.342 494.602 46.5 495 46.5C495.398 46.5 495.779 46.342 496.061 46.0607C496.342 45.7794 496.5 45.3978 496.5 45C496.5 44.6022 496.342 44.2206 496.061 43.9393C495.779 43.658 495.398 43.5 495 43.5C494.602 43.5 494.221 43.658 493.939 43.9393C493.658 44.2206 493.5 44.6022 493.5 45V45Z" stroke="#2177CC"/>
<path d="M492.5 75C492.5 75.663 492.763 76.2989 493.232 76.7678C493.701 77.2366 494.337 77.5 495 77.5C495.663 77.5 496.299 77.2366 496.768 76.7678C497.237 76.2989 497.5 75.663 497.5 75C497.5 74.337 497.237 73.7011 496.768 73.2322C496.299 72.7634 495.663 72.5 495 72.5C494.337 72.5 493.701 72.7634 493.232 73.2322C492.763 73.7011 492.5 74.337 492.5 75V75Z" stroke="#2177CC"/>
<path d="M510 90L480 120L510 90Z" stroke="#2177CC" stroke-width="3"/>
<path d="M498 132L492 138L498 132Z" stroke="#2177CC"/>
<path d="M496 164L494 166L496 164Z" stroke="#2177CC"/>
<path d="M496 194L494 196L496 194Z" stroke="#2177CC"/>
<path d="M498 222L492 228L498 222Z" stroke="#2177CC"/>
<path d="M498 252L492 258L498 252Z" stroke="#2177CC"/>
<path d="M522.5 15C522.5 15.663 522.763 16.2989 523.232 16.7678C523.701 17.2366 524.337 17.5 525 17.5C525.663 17.5 526.299 17.2366 526.768 16.7678C527.237 16.2989 527.5 15.663 527.5 15C527.5 14.337 527.237 13.7011 526.768 13.2322C526.299 12.7634 525.663 12.5 525 12.5C524.337 12.5 523.701 12.7634 523.232 13.2322C522.763 13.7011 522.5 14.337 522.5 15V15Z" stroke="#2177CC"/>
<path d="M528 42L522 48L528 42Z" stroke="#2177CC"/>
<path d="M528 72L522 78L528 72Z" stroke="#2177CC"/>
<path d="M522.5 105C522.5 105.663 522.763 106.299 523.232 106.768C523.701 107.237 524.337 107.5 525 107.5C525.663 107.5 526.299 107.237 526.768 106.768C527.237 106.299 527.5 105.663 527.5 105C527.5 104.337 527.237 103.701 526.768 103.232C526.299 102.763 525.663 102.5 525 102.5C524.337 102.5 523.701 102.763 523.232 103.232C522.763 103.701 522.5 104.337 522.5 105V105Z" stroke="#2177CC"/>
<path d="M526 134L524 136L526 134Z" stroke="#2177CC"/>
<path d="M528 162L522 168L528 162Z" stroke="#2177CC"/>
<path d="M540 180L510 210L540 180Z" stroke="#2177CC" stroke-width="3"/>
<path d="M522.5 225C522.5 225.663 522.763 226.299 523.232 226.768C523.701 227.237 524.337 227.5 525 227.5C525.663 227.5 526.299 227.237 526.768 226.768C527.237 226.299 527.5 225.663 527.5 225C527.5 224.337 527.237 223.701 526.768 223.232C526.299 222.763 525.663 222.5 525 222.5C524.337 222.5 523.701 222.763 523.232 223.232C522.763 223.701 522.5 224.337 522.5 225V225Z" stroke="#2177CC"/>
<path d="M526 254L524 256L526 254Z" stroke="#2177CC"/>
<path d="M570 0L540 30L570 0Z" stroke="#2177CC" stroke-width="3"/>
<path d="M552.5 45C552.5 45.663 552.763 46.2989 553.232 46.7678C553.701 47.2366 554.337 47.5 555 47.5C555.663 47.5 556.299 47.2366 556.768 46.7678C557.237 46.2989 557.5 45.663 557.5 45C557.5 44.337 557.237 43.7011 556.768 43.2322C556.299 42.7634 555.663 42.5 555 42.5C554.337 42.5 553.701 42.7634 553.232 43.2322C552.763 43.7011 552.5 44.337 552.5 45V45Z" stroke="#2177CC"/>
<path d="M558 72L552 78L558 72Z" stroke="#2177CC"/>
<path d="M554.5 105C554.5 105.133 554.553 105.26 554.646 105.354C554.74 105.447 554.867 105.5 555 105.5C555.133 105.5 555.26 105.447 555.354 105.354C555.447 105.26 555.5 105.133 555.5 105C555.5 104.867 555.447 104.74 555.354 104.646C555.26 104.553 555.133 104.5 555 104.5C554.867 104.5 554.74 104.553 554.646 104.646C554.553 104.74 554.5 104.867 554.5 105V105Z" stroke="#2177CC"/>
<path d="M558 132L552 138L558 132Z" stroke="#2177CC"/>
<path d="M558 162L552 168L558 162Z" stroke="#2177CC"/>
<path d="M556 194L554 196L556 194Z" stroke="#2177CC"/>
<path d="M556 224L554 226L556 224Z" stroke="#2177CC"/>
<path d="M556 254L554 256L556 254Z" stroke="#2177CC"/>
<path d="M588 12L582 18L588 12Z" stroke="#2177CC"/>
<path d="M583.5 45C583.5 45.3978 583.658 45.7794 583.939 46.0607C584.221 46.342 584.602 46.5 585 46.5C585.398 46.5 585.779 46.342 586.061 46.0607C586.342 45.7794 586.5 45.3978 586.5 45C586.5 44.6022 586.342 44.2206 586.061 43.9393C585.779 43.658 585.398 43.5 585 43.5C584.602 43.5 584.221 43.658 583.939 43.9393C583.658 44.2206 583.5 44.6022 583.5 45V45Z" stroke="#2177CC"/>
<path d="M586 74L584 76L586 74Z" stroke="#2177CC"/>
<path d="M588 102L582 108L588 102Z" stroke="#2177CC"/>
<path d="M586 134L584 136L586 134Z" stroke="#2177CC"/>
<path d="M588 162L582 168L588 162Z" stroke="#2177CC"/>
<path d="M588 192L582 198L588 192Z" stroke="#2177CC"/>
<path d="M582.5 225C582.5 225.663 582.763 226.299 583.232 226.768C583.701 227.237 584.337 227.5 585 227.5C585.663 227.5 586.299 227.237 586.768 226.768C587.237 226.299 587.5 225.663 587.5 225C587.5 224.337 587.237 223.701 586.768 223.232C586.299 222.763 585.663 222.5 585 222.5C584.337 222.5 583.701 222.763 583.232 223.232C582.763 223.701 582.5 224.337 582.5 225V225Z" stroke="#2177CC"/>
<path d="M588 252L582 258L588 252Z" stroke="#2177CC"/>
<path d="M600 270L570 300L600 270Z" stroke="#2177CC" stroke-width="3"/>
<path d="M612.5 15C612.5 15.663 612.763 16.2989 613.232 16.7678C613.701 17.2366 614.337 17.5 615 17.5C615.663 17.5 616.299 17.2366 616.768 16.7678C617.237 16.2989 617.5 15.663 617.5 15C617.5 14.337 617.237 13.7011 616.768 13.2322C616.299 12.7634 615.663 12.5 615 12.5C614.337 12.5 613.701 12.7634 613.232 13.2322C612.763 13.7011 612.5 14.337 612.5 15V15Z" stroke="#2177CC"/>
<path d="M618 42L612 48L618 42Z" stroke="#2177CC"/>
<path d="M618 72L612 78L618 72Z" stroke="#2177CC"/>
<path d="M614.5 105C614.5 105.133 614.553 105.26 614.646 105.354C614.74 105.447 614.867 105.5 615 105.5C615.133 105.5 615.26 105.447 615.354 105.354C615.447 105.26 615.5 105.133 615.5 105C615.5 104.867 615.447 104.74 615.354 104.646C615.26 104.553 615.133 104.5 615 104.5C614.867 104.5 614.74 104.553 614.646 104.646C614.553 104.74 614.5 104.867 614.5 105V105Z" stroke="#2177CC"/>
<path d="M618 132L612 138L618 132Z" stroke="#2177CC"/>
<path d="M612.5 165C612.5 165.663 612.763 166.299 613.232 166.768C613.701 167.237 614.337 167.5 615 167.5C615.663 167.5 616.299 167.237 616.768 166.768C617.237 166.299 617.5 165.663 617.5 165C617.5 164.337 617.237 163.701 616.768 163.232C616.299 162.763 615.663 162.5 615 162.5C614.337 162.5 613.701 162.763 613.232 163.232C612.763 163.701 612.5 164.337 612.5 165V165Z" stroke="#2177CC"/>
<path d="M614.5 195C614.5 195.133 614.553 195.26 614.646 195.354C614.74 195.447 614.867 195.5 615 195.5C615.133 195.5 615.26 195.447 615.354 195.354C615.447 195.26 615.5 195.133 615.5 195C615.5 194.867 615.447 194.74 615.354 194.646C615.26 194.553 615.133 194.5 615 194.5C614.867 194.5 614.74 194.553 614.646 194.646C614.553 194.74 614.5 194.867 614.5 195V195Z" stroke="#2177CC"/>
<path d="M612.5 225C612.5 225.663 612.763 226.299 613.232 226.768C613.701 227.237 614.337 227.5 615 227.5C615.663 227.5 616.299 227.237 616.768 226.768C617.237 226.299 617.5 225.663 617.5 225C617.5 224.337 617.237 223.701 616.768 223.232C616.299 222.763 615.663 222.5 615 222.5C614.337 222.5 613.701 222.763 613.232 223.232C612.763 223.701 612.5 224.337 612.5 225V225Z" stroke="#2177CC"/>
<path d="M612.5 255C612.5 255.663 612.763 256.299 613.232 256.768C613.701 257.237 614.337 257.5 615 257.5C615.663 257.5 616.299 257.237 616.768 256.768C617.237 256.299 617.5 255.663 617.5 255C617.5 254.337 617.237 253.701 616.768 253.232C616.299 252.763 615.663 252.5 615 252.5C614.337 252.5 613.701 252.763 613.232 253.232C612.763 253.701 612.5 254.337 612.5 255V255Z" stroke="#2177CC"/>
<path d="M646 14L644 16L646 14Z" stroke="#2177CC"/>
<path d="M648 42L642 48L648 42Z" stroke="#2177CC"/>
<path d="M660 60L630 90L660 60Z" stroke="#2177CC" stroke-width="3"/>
<path d="M642.5 105C642.5 105.663 642.763 106.299 643.232 106.768C643.701 107.237 644.337 107.5 645 107.5C645.663 107.5 646.299 107.237 646.768 106.768C647.237 106.299 647.5 105.663 647.5 105C647.5 104.337 647.237 103.701 646.768 103.232C646.299 102.763 645.663 102.5 645 102.5C644.337 102.5 643.701 102.763 643.232 103.232C642.763 103.701 642.5 104.337 642.5 105V105Z" stroke="#2177CC"/>
<path d="M642.5 135C642.5 135.663 642.763 136.299 643.232 136.768C643.701 137.237 644.337 137.5 645 137.5C645.663 137.5 646.299 137.237 646.768 136.768C647.237 136.299 647.5 135.663 647.5 135C647.5 134.337 647.237 133.701 646.768 133.232C646.299 132.763 645.663 132.5 645 132.5C644.337 132.5 643.701 132.763 643.232 133.232C642.763 133.701 642.5 134.337 642.5 135V135Z" stroke="#2177CC"/>
<path d="M642.5 165C642.5 165.663 642.763 166.299 643.232 166.768C643.701 167.237 644.337 167.5 645 167.5C645.663 167.5 646.299 167.237 646.768 166.768C647.237 166.299 647.5 165.663 647.5 165C647.5 164.337 647.237 163.701 646.768 163.232C646.299 162.763 645.663 162.5 645 162.5C644.337 162.5 643.701 162.763 643.232 163.232C642.763 163.701 642.5 164.337 642.5 165V165Z" stroke="#2177CC"/>
<path d="M642.5 195C642.5 195.663 642.763 196.299 643.232 196.768C643.701 197.237 644.337 197.5 645 197.5C645.663 197.5 646.299 197.237 646.768 196.768C647.237 196.299 647.5 195.663 647.5 195C647.5 194.337 647.237 193.701 646.768 193.232C646.299 192.763 645.663 192.5 645 192.5C644.337 192.5 643.701 192.763 643.232 193.232C642.763 193.701 642.5 194.337 642.5 195V195Z" stroke="#2177CC"/>
<path d="M646 224L644 226L646 224Z" stroke="#2177CC"/>
<path d="M648 252L642 258L648 252Z" stroke="#2177CC"/>
<path d="M674.5 15C674.5 15.1326 674.553 15.2598 674.646 15.3536C674.74 15.4473 674.867 15.5 675 15.5C675.133 15.5 675.26 15.4473 675.354 15.3536C675.447 15.2598 675.5 15.1326 675.5 15C675.5 14.8674 675.447 14.7402 675.354 14.6464C675.26 14.5527 675.133 14.5 675 14.5C674.867 14.5 674.74 14.5527 674.646 14.6464C674.553 14.7402 674.5 14.8674 674.5 15V15Z" stroke="#2177CC"/>
<path d="M672.5 45C672.5 45.663 672.763 46.2989 673.232 46.7678C673.701 47.2366 674.337 47.5 675 47.5C675.663 47.5 676.299 47.2366 676.768 46.7678C677.237 46.2989 677.5 45.663 677.5 45C677.5 44.337 677.237 43.7011 676.768 43.2322C676.299 42.7634 675.663 42.5 675 42.5C674.337 42.5 673.701 42.7634 673.232 43.2322C672.763 43.7011 672.5 44.337 672.5 45V45Z" stroke="#2177CC"/>
<path d="M678 72L672 78L678 72Z" stroke="#2177CC"/>
<path d="M673.5 105C673.5 105.398 673.658 105.779 673.939 106.061C674.221 106.342 674.602 106.5 675 106.5C675.398 106.5 675.779 106.342 676.061 106.061C676.342 105.779 676.5 105.398 676.5 105C676.5 104.602 676.342 104.221 676.061 103.939C675.779 103.658 675.398 103.5 675 103.5C674.602 103.5 674.221 103.658 673.939 103.939C673.658 104.221 673.5 104.602 673.5 105V105Z" stroke="#2177CC"/>
<path d="M678 132L672 138L678 132Z" stroke="#2177CC"/>
<path d="M676 164L674 166L676 164Z" stroke="#2177CC"/>
<path d="M678 192L672 198L678 192Z" stroke="#2177CC"/>
<path d="M672.5 225C672.5 225.663 672.763 226.299 673.232 226.768C673.701 227.237 674.337 227.5 675 227.5C675.663 227.5 676.299 227.237 676.768 226.768C677.237 226.299 677.5 225.663 677.5 225C677.5 224.337 677.237 223.701 676.768 223.232C676.299 222.763 675.663 222.5 675 222.5C674.337 222.5 673.701 222.763 673.232 223.232C672.763 223.701 672.5 224.337 672.5 225V225Z" stroke="#2177CC"/>
<path d="M678 252L672 258L678 252Z" stroke="#2177CC"/>
<path d="M703.5 15C703.5 15.3978 703.658 15.7794 703.939 16.0607C704.221 16.342 704.602 16.5 705 16.5C705.398 16.5 705.779 16.342 706.061 16.0607C706.342 15.7794 706.5 15.3978 706.5 15C706.5 14.6022 706.342 14.2206 706.061 13.9393C705.779 13.658 705.398 13.5 705 13.5C704.602 13.5 704.221 13.658 703.939 13.9393C703.658 14.2206 703.5 14.6022 703.5 15V15Z" stroke="#2177CC"/>
<path d="M706 44L704 46L706 44Z" stroke="#2177CC"/>
<path d="M708 72L702 78L708 72Z" stroke="#2177CC"/>
<path d="M702.5 105C702.5 105.663 702.763 106.299 703.232 106.768C703.701 107.237 704.337 107.5 705 107.5C705.663 107.5 706.299 107.237 706.768 106.768C707.237 106.299 707.5 105.663 707.5 105C707.5 104.337 707.237 103.701 706.768 103.232C706.299 102.763 705.663 102.5 705 102.5C704.337 102.5 703.701 102.763 703.232 103.232C702.763 103.701 702.5 104.337 702.5 105V105Z" stroke="#2177CC"/>
<path d="M704.5 135C704.5 135.133 704.553 135.26 704.646 135.354C704.74 135.447 704.867 135.5 705 135.5C705.133 135.5 705.26 135.447 705.354 135.354C705.447 135.26 705.5 135.133 705.5 135C705.5 134.867 705.447 134.74 705.354 134.646C705.26 134.553 705.133 134.5 705 134.5C704.867 134.5 704.74 134.553 704.646 134.646C704.553 134.74 704.5 134.867 704.5 135V135Z" stroke="#2177CC"/>
<path d="M704.5 165C704.5 165.133 704.553 165.26 704.646 165.354C704.74 165.447 704.867 165.5 705 165.5C705.133 165.5 705.26 165.447 705.354 165.354C705.447 165.26 705.5 165.133 705.5 165C705.5 164.867 705.447 164.74 705.354 164.646C705.26 164.553 705.133 164.5 705 164.5C704.867 164.5 704.74 164.553 704.646 164.646C704.553 164.74 704.5 164.867 704.5 165V165Z" stroke="#2177CC"/>
<path d="M708 192L702 198L708 192Z" stroke="#2177CC"/>
<path d="M702.5 225C702.5 225.663 702.763 226.299 703.232 226.768C703.701 227.237 704.337 227.5 705 227.5C705.663 227.5 706.299 227.237 706.768 226.768C707.237 226.299 707.5 225.663 707.5 225C707.5 224.337 707.237 223.701 706.768 223.232C706.299 222.763 705.663 222.5 705 222.5C704.337 222.5 703.701 222.763 703.232 223.232C702.763 223.701 702.5 224.337 702.5 225V225Z" stroke="#2177CC"/>
<path d="M720 240L690 270L720 240Z" stroke="#2177CC" stroke-width="3"/>
</g>
<g clip-path="url(#clip1_505_2)">
<path d="M1438 0H718V280H1438V0Z" fill="#1F3A8A"/>
<path d="M732.5 15C732.5 15.1326 732.553 15.2598 732.646 15.3536C732.74 15.4473 732.867 15.5 733 15.5C733.133 15.5 733.26 15.4473 733.354 15.3536C733.447 15.2598 733.5 15.1326 733.5 15C733.5 14.8674 733.447 14.7402 733.354 14.6464C733.26 14.5527 733.133 14.5 733 14.5C732.867 14.5 732.74 14.5527 732.646 14.6464C732.553 14.7402 732.5 14.8674 732.5 15V15Z" stroke="#2177CC"/>
<path d="M748 30L718 60L748 30Z" stroke="#2177CC" stroke-width="3"/>
<path d="M734 74L732 76L734 74Z" stroke="#2177CC"/>
<path d="M730.5 105C730.5 105.663 730.763 106.299 731.232 106.768C731.701 107.237 732.337 107.5 733 107.5C733.663 107.5 734.299 107.237 734.768 106.768C735.237 106.299 735.5 105.663 735.5 105C735.5 104.337 735.237 103.701 734.768 103.232C734.299 102.763 733.663 102.5 733 102.5C732.337 102.5 731.701 102.763 731.232 103.232C730.763 103.701 730.5 104.337 730.5 105V105Z" stroke="#2177CC"/>
<path d="M736 132L730 138L736 132Z" stroke="#2177CC"/>
<path d="M730.5 165C730.5 165.663 730.763 166.299 731.232 166.768C731.701 167.237 732.337 167.5 733 167.5C733.663 167.5 734.299 167.237 734.768 166.768C735.237 166.299 735.5 165.663 735.5 165C735.5 164.337 735.237 163.701 734.768 163.232C734.299 162.763 733.663 162.5 733 162.5C732.337 162.5 731.701 162.763 731.232 163.232C730.763 163.701 730.5 164.337 730.5 165V165Z" stroke="#2177CC"/>
<path d="M736 192L730 198L736 192Z" stroke="#2177CC"/>
<path d="M730.5 225C730.5 225.663 730.763 226.299 731.232 226.768C731.701 227.237 732.337 227.5 733 227.5C733.663 227.5 734.299 227.237 734.768 226.768C735.237 226.299 735.5 225.663 735.5 225C735.5 224.337 735.237 223.701 734.768 223.232C734.299 222.763 733.663 222.5 733 222.5C732.337 222.5 731.701 222.763 731.232 223.232C730.763 223.701 730.5 224.337 730.5 225V225Z" stroke="#2177CC"/>
<path d="M736 252L730 258L736 252Z" stroke="#2177CC"/>
<path d="M760.5 15C760.5 15.663 760.763 16.2989 761.232 16.7678C761.701 17.2366 762.337 17.5 763 17.5C763.663 17.5 764.299 17.2366 764.768 16.7678C765.237 16.2989 765.5 15.663 765.5 15C765.5 14.337 765.237 13.7011 764.768 13.2322C764.299 12.7634 763.663 12.5 763 12.5C762.337 12.5 761.701 12.7634 761.232 13.2322C760.763 13.7011 760.5 14.337 760.5 15V15Z" stroke="#2177CC"/>
<path d="M760.5 45C760.5 45.663 760.763 46.2989 761.232 46.7678C761.701 47.2366 762.337 47.5 763 47.5C763.663 47.5 764.299 47.2366 764.768 46.7678C765.237 46.2989 765.5 45.663 765.5 45C765.5 44.337 765.237 43.7011 764.768 43.2322C764.299 42.7634 763.663 42.5 763 42.5C762.337 42.5 761.701 42.7634 761.232 43.2322C760.763 43.7011 760.5 44.337 760.5 45V45Z" stroke="#2177CC"/>
<path d="M761.5 75C761.5 75.3978 761.658 75.7794 761.939 76.0607C762.221 76.342 762.602 76.5 763 76.5C763.398 76.5 763.779 76.342 764.061 76.0607C764.342 75.7794 764.5 75.3978 764.5 75C764.5 74.6022 764.342 74.2206 764.061 73.9393C763.779 73.658 763.398 73.5 763 73.5C762.602 73.5 762.221 73.658 761.939 73.9393C761.658 74.2206 761.5 74.6022 761.5 75V75Z" stroke="#2177CC"/>
<path d="M761.5 105C761.5 105.398 761.658 105.779 761.939 106.061C762.221 106.342 762.602 106.5 763 106.5C763.398 106.5 763.779 106.342 764.061 106.061C764.342 105.779 764.5 105.398 764.5 105C764.5 104.602 764.342 104.221 764.061 103.939C763.779 103.658 763.398 103.5 763 103.5C762.602 103.5 762.221 103.658 761.939 103.939C761.658 104.221 761.5 104.602 761.5 105V105Z" stroke="#2177CC"/>
<path d="M766 132L760 138L766 132Z" stroke="#2177CC"/>
<path d="M766 162L760 168L766 162Z" stroke="#2177CC"/>
<path d="M764 194L762 196L764 194Z" stroke="#2177CC"/>
<path d="M762.5 225C762.5 225.133 762.553 225.26 762.646 225.354C762.74 225.447 762.867 225.5 763 225.5C763.133 225.5 763.26 225.447 763.354 225.354C763.447 225.26 763.5 225.133 763.5 225C763.5 224.867 763.447 224.74 763.354 224.646C763.26 224.553 763.133 224.5 763 224.5C762.867 224.5 762.74 224.553 762.646 224.646C762.553 224.74 762.5 224.867 762.5 225V225Z" stroke="#2177CC"/>
<path d="M766 252L760 258L766 252Z" stroke="#2177CC"/>
<path d="M791.5 15C791.5 15.3978 791.658 15.7794 791.939 16.0607C792.221 16.342 792.602 16.5 793 16.5C793.398 16.5 793.779 16.342 794.061 16.0607C794.342 15.7794 794.5 15.3978 794.5 15C794.5 14.6022 794.342 14.2206 794.061 13.9393C793.779 13.658 793.398 13.5 793 13.5C792.602 13.5 792.221 13.658 791.939 13.9393C791.658 14.2206 791.5 14.6022 791.5 15V15Z" stroke="#2177CC"/>
<path d="M796 42L790 48L796 42Z" stroke="#2177CC"/>
<path d="M796 72L790 78L796 72Z" stroke="#2177CC"/>
<path d="M794 104L792 106L794 104Z" stroke="#2177CC"/>
<path d="M796 132L790 138L796 132Z" stroke="#2177CC"/>
<path d="M790.5 165C790.5 165.663 790.763 166.299 791.232 166.768C791.701 167.237 792.337 167.5 793 167.5C793.663 167.5 794.299 167.237 794.768 166.768C795.237 166.299 795.5 165.663 795.5 165C795.5 164.337 795.237 163.701 794.768 163.232C794.299 162.763 793.663 162.5 793 162.5C792.337 162.5 791.701 162.763 791.232 163.232C790.763 163.701 790.5 164.337 790.5 165V165Z" stroke="#2177CC"/>
<path d="M790.5 195C790.5 195.663 790.763 196.299 791.232 196.768C791.701 197.237 792.337 197.5 793 197.5C793.663 197.5 794.299 197.237 794.768 196.768C795.237 196.299 795.5 195.663 795.5 195C795.5 194.337 795.237 193.701 794.768 193.232C794.299 192.763 793.663 192.5 793 192.5C792.337 192.5 791.701 192.763 791.232 193.232C790.763 193.701 790.5 194.337 790.5 195V195Z" stroke="#2177CC"/>
<path d="M790.5 225C790.5 225.663 790.763 226.299 791.232 226.768C791.701 227.237 792.337 227.5 793 227.5C793.663 227.5 794.299 227.237 794.768 226.768C795.237 226.299 795.5 225.663 795.5 225C795.5 224.337 795.237 223.701 794.768 223.232C794.299 222.763 793.663 222.5 793 222.5C792.337 222.5 791.701 222.763 791.232 223.232C790.763 223.701 790.5 224.337 790.5 225V225Z" stroke="#2177CC"/>
<path d="M796 252L790 258L796 252Z" stroke="#2177CC"/>
<path d="M808 270L778 300L808 270Z" stroke="#2177CC" stroke-width="3"/>
<path d="M820.5 15C820.5 15.663 820.763 16.2989 821.232 16.7678C821.701 17.2366 822.337 17.5 823 17.5C823.663 17.5 824.299 17.2366 824.768 16.7678C825.237 16.2989 825.5 15.663 825.5 15C825.5 14.337 825.237 13.7011 824.768 13.2322C824.299 12.7634 823.663 12.5 823 12.5C822.337 12.5 821.701 12.7634 821.232 13.2322C820.763 13.7011 820.5 14.337 820.5 15V15Z" stroke="#2177CC"/>
<path d="M820.5 45C820.5 45.663 820.763 46.2989 821.232 46.7678C821.701 47.2366 822.337 47.5 823 47.5C823.663 47.5 824.299 47.2366 824.768 46.7678C825.237 46.2989 825.5 45.663 825.5 45C825.5 44.337 825.237 43.7011 824.768 43.2322C824.299 42.7634 823.663 42.5 823 42.5C822.337 42.5 821.701 42.7634 821.232 43.2322C820.763 43.7011 820.5 44.337 820.5 45V45Z" stroke="#2177CC"/>
<path d="M821.5 75C821.5 75.3978 821.658 75.7794 821.939 76.0607C822.221 76.342 822.602 76.5 823 76.5C823.398 76.5 823.779 76.342 824.061 76.0607C824.342 75.7794 824.5 75.3978 824.5 75C824.5 74.6022 824.342 74.2206 824.061 73.9393C823.779 73.658 823.398 73.5 823 73.5C822.602 73.5 822.221 73.658 821.939 73.9393C821.658 74.2206 821.5 74.6022 821.5 75V75Z" stroke="#2177CC"/>
<path d="M820.5 105C820.5 105.663 820.763 106.299 821.232 106.768C821.701 107.237 822.337 107.5 823 107.5C823.663 107.5 824.299 107.237 824.768 106.768C825.237 106.299 825.5 105.663 825.5 105C825.5 104.337 825.237 103.701 824.768 103.232C824.299 102.763 823.663 102.5 823 102.5C822.337 102.5 821.701 102.763 821.232 103.232C820.763 103.701 820.5 104.337 820.5 105V105Z" stroke="#2177CC"/>
<path d="M824 134L822 136L824 134Z" stroke="#2177CC"/>
<path d="M821.5 165C821.5 165.398 821.658 165.779 821.939 166.061C822.221 166.342 822.602 166.5 823 166.5C823.398 166.5 823.779 166.342 824.061 166.061C824.342 165.779 824.5 165.398 824.5 165C824.5 164.602 824.342 164.221 824.061 163.939C823.779 163.658 823.398 163.5 823 163.5C822.602 163.5 822.221 163.658 821.939 163.939C821.658 164.221 821.5 164.602 821.5 165V165Z" stroke="#2177CC"/>
<path d="M826 192L820 198L826 192Z" stroke="#2177CC"/>
<path d="M824 224L822 226L824 224Z" stroke="#2177CC"/>
<path d="M820.5 255C820.5 255.663 820.763 256.299 821.232 256.768C821.701 257.237 822.337 257.5 823 257.5C823.663 257.5 824.299 257.237 824.768 256.768C825.237 256.299 825.5 255.663 825.5 255C825.5 254.337 825.237 253.701 824.768 253.232C824.299 252.763 823.663 252.5 823 252.5C822.337 252.5 821.701 252.763 821.232 253.232C820.763 253.701 820.5 254.337 820.5 255V255Z" stroke="#2177CC"/>
<path d="M850.5 15C850.5 15.663 850.763 16.2989 851.232 16.7678C851.701 17.2366 852.337 17.5 853 17.5C853.663 17.5 854.299 17.2366 854.768 16.7678C855.237 16.2989 855.5 15.663 855.5 15C855.5 14.337 855.237 13.7011 854.768 13.2322C854.299 12.7634 853.663 12.5 853 12.5C852.337 12.5 851.701 12.7634 851.232 13.2322C850.763 13.7011 850.5 14.337 850.5 15V15Z" stroke="#2177CC"/>
<path d="M851.5 45C851.5 45.3978 851.658 45.7794 851.939 46.0607C852.221 46.342 852.602 46.5 853 46.5C853.398 46.5 853.779 46.342 854.061 46.0607C854.342 45.7794 854.5 45.3978 854.5 45C854.5 44.6022 854.342 44.2206 854.061 43.9393C853.779 43.658 853.398 43.5 853 43.5C852.602 43.5 852.221 43.658 851.939 43.9393C851.658 44.2206 851.5 44.6022 851.5 45V45Z" stroke="#2177CC"/>
<path d="M850.5 75C850.5 75.663 850.763 76.2989 851.232 76.7678C851.701 77.2366 852.337 77.5 853 77.5C853.663 77.5 854.299 77.2366 854.768 76.7678C855.237 76.2989 855.5 75.663 855.5 75C855.5 74.337 855.237 73.7011 854.768 73.2322C854.299 72.7634 853.663 72.5 853 72.5C852.337 72.5 851.701 72.7634 851.232 73.2322C850.763 73.7011 850.5 74.337 850.5 75V75Z" stroke="#2177CC"/>
<path d="M868 90L838 120L868 90Z" stroke="#2177CC" stroke-width="3"/>
<path d="M856 132L850 138L856 132Z" stroke="#2177CC"/>
<path d="M854 164L852 166L854 164Z" stroke="#2177CC"/>
<path d="M854 194L852 196L854 194Z" stroke="#2177CC"/>
<path d="M856 222L850 228L856 222Z" stroke="#2177CC"/>
<path d="M856 252L850 258L856 252Z" stroke="#2177CC"/>
<path d="M880.5 15C880.5 15.663 880.763 16.2989 881.232 16.7678C881.701 17.2366 882.337 17.5 883 17.5C883.663 17.5 884.299 17.2366 884.768 16.7678C885.237 16.2989 885.5 15.663 885.5 15C885.5 14.337 885.237 13.7011 884.768 13.2322C884.299 12.7634 883.663 12.5 883 12.5C882.337 12.5 881.701 12.7634 881.232 13.2322C880.763 13.7011 880.5 14.337 880.5 15V15Z" stroke="#2177CC"/>
<path d="M886 42L880 48L886 42Z" stroke="#2177CC"/>
<path d="M886 72L880 78L886 72Z" stroke="#2177CC"/>
<path d="M880.5 105C880.5 105.663 880.763 106.299 881.232 106.768C881.701 107.237 882.337 107.5 883 107.5C883.663 107.5 884.299 107.237 884.768 106.768C885.237 106.299 885.5 105.663 885.5 105C885.5 104.337 885.237 103.701 884.768 103.232C884.299 102.763 883.663 102.5 883 102.5C882.337 102.5 881.701 102.763 881.232 103.232C880.763 103.701 880.5 104.337 880.5 105V105Z" stroke="#2177CC"/>
<path d="M884 134L882 136L884 134Z" stroke="#2177CC"/>
<path d="M886 162L880 168L886 162Z" stroke="#2177CC"/>
<path d="M898 180L868 210L898 180Z" stroke="#2177CC" stroke-width="3"/>
<path d="M880.5 225C880.5 225.663 880.763 226.299 881.232 226.768C881.701 227.237 882.337 227.5 883 227.5C883.663 227.5 884.299 227.237 884.768 226.768C885.237 226.299 885.5 225.663 885.5 225C885.5 224.337 885.237 223.701 884.768 223.232C884.299 222.763 883.663 222.5 883 222.5C882.337 222.5 881.701 222.763 881.232 223.232C880.763 223.701 880.5 224.337 880.5 225V225Z" stroke="#2177CC"/>
<path d="M884 254L882 256L884 254Z" stroke="#2177CC"/>
<path d="M928 0L898 30L928 0Z" stroke="#2177CC" stroke-width="3"/>
<path d="M910.5 45C910.5 45.663 910.763 46.2989 911.232 46.7678C911.701 47.2366 912.337 47.5 913 47.5C913.663 47.5 914.299 47.2366 914.768 46.7678C915.237 46.2989 915.5 45.663 915.5 45C915.5 44.337 915.237 43.7011 914.768 43.2322C914.299 42.7634 913.663 42.5 913 42.5C912.337 42.5 911.701 42.7634 911.232 43.2322C910.763 43.7011 910.5 44.337 910.5 45V45Z" stroke="#2177CC"/>
<path d="M916 72L910 78L916 72Z" stroke="#2177CC"/>
<path d="M912.5 105C912.5 105.133 912.553 105.26 912.646 105.354C912.74 105.447 912.867 105.5 913 105.5C913.133 105.5 913.26 105.447 913.354 105.354C913.447 105.26 913.5 105.133 913.5 105C913.5 104.867 913.447 104.74 913.354 104.646C913.26 104.553 913.133 104.5 913 104.5C912.867 104.5 912.74 104.553 912.646 104.646C912.553 104.74 912.5 104.867 912.5 105V105Z" stroke="#2177CC"/>
<path d="M916 132L910 138L916 132Z" stroke="#2177CC"/>
<path d="M916 162L910 168L916 162Z" stroke="#2177CC"/>
<path d="M914 194L912 196L914 194Z" stroke="#2177CC"/>
<path d="M914 224L912 226L914 224Z" stroke="#2177CC"/>
<path d="M914 254L912 256L914 254Z" stroke="#2177CC"/>
<path d="M946 12L940 18L946 12Z" stroke="#2177CC"/>
<path d="M941.5 45C941.5 45.3978 941.658 45.7794 941.939 46.0607C942.221 46.342 942.602 46.5 943 46.5C943.398 46.5 943.779 46.342 944.061 46.0607C944.342 45.7794 944.5 45.3978 944.5 45C944.5 44.6022 944.342 44.2206 944.061 43.9393C943.779 43.658 943.398 43.5 943 43.5C942.602 43.5 942.221 43.658 941.939 43.9393C941.658 44.2206 941.5 44.6022 941.5 45V45Z" stroke="#2177CC"/>
<path d="M944 74L942 76L944 74Z" stroke="#2177CC"/>
<path d="M946 102L940 108L946 102Z" stroke="#2177CC"/>
<path d="M944 134L942 136L944 134Z" stroke="#2177CC"/>
<path d="M946 162L940 168L946 162Z" stroke="#2177CC"/>
<path d="M946 192L940 198L946 192Z" stroke="#2177CC"/>
<path d="M940.5 225C940.5 225.663 940.763 226.299 941.232 226.768C941.701 227.237 942.337 227.5 943 227.5C943.663 227.5 944.299 227.237 944.768 226.768C945.237 226.299 945.5 225.663 945.5 225C945.5 224.337 945.237 223.701 944.768 223.232C944.299 222.763 943.663 222.5 943 222.5C942.337 222.5 941.701 222.763 941.232 223.232C940.763 223.701 940.5 224.337 940.5 225V225Z" stroke="#2177CC"/>
<path d="M946 252L940 258L946 252Z" stroke="#2177CC"/>
<path d="M958 270L928 300L958 270Z" stroke="#2177CC" stroke-width="3"/>
<path d="M970.5 15C970.5 15.663 970.763 16.2989 971.232 16.7678C971.701 17.2366 972.337 17.5 973 17.5C973.663 17.5 974.299 17.2366 974.768 16.7678C975.237 16.2989 975.5 15.663 975.5 15C975.5 14.337 975.237 13.7011 974.768 13.2322C974.299 12.7634 973.663 12.5 973 12.5C972.337 12.5 971.701 12.7634 971.232 13.2322C970.763 13.7011 970.5 14.337 970.5 15V15Z" stroke="#2177CC"/>
<path d="M976 42L970 48L976 42Z" stroke="#2177CC"/>
<path d="M976 72L970 78L976 72Z" stroke="#2177CC"/>
<path d="M972.5 105C972.5 105.133 972.553 105.26 972.646 105.354C972.74 105.447 972.867 105.5 973 105.5C973.133 105.5 973.26 105.447 973.354 105.354C973.447 105.26 973.5 105.133 973.5 105C973.5 104.867 973.447 104.74 973.354 104.646C973.26 104.553 973.133 104.5 973 104.5C972.867 104.5 972.74 104.553 972.646 104.646C972.553 104.74 972.5 104.867 972.5 105V105Z" stroke="#2177CC"/>
<path d="M976 132L970 138L976 132Z" stroke="#2177CC"/>
<path d="M970.5 165C970.5 165.663 970.763 166.299 971.232 166.768C971.701 167.237 972.337 167.5 973 167.5C973.663 167.5 974.299 167.237 974.768 166.768C975.237 166.299 975.5 165.663 975.5 165C975.5 164.337 975.237 163.701 974.768 163.232C974.299 162.763 973.663 162.5 973 162.5C972.337 162.5 971.701 162.763 971.232 163.232C970.763 163.701 970.5 164.337 970.5 165V165Z" stroke="#2177CC"/>
<path d="M972.5 195C972.5 195.133 972.553 195.26 972.646 195.354C972.74 195.447 972.867 195.5 973 195.5C973.133 195.5 973.26 195.447 973.354 195.354C973.447 195.26 973.5 195.133 973.5 195C973.5 194.867 973.447 194.74 973.354 194.646C973.26 194.553 973.133 194.5 973 194.5C972.867 194.5 972.74 194.553 972.646 194.646C972.553 194.74 972.5 194.867 972.5 195V195Z" stroke="#2177CC"/>
<path d="M970.5 225C970.5 225.663 970.763 226.299 971.232 226.768C971.701 227.237 972.337 227.5 973 227.5C973.663 227.5 974.299 227.237 974.768 226.768C975.237 226.299 975.5 225.663 975.5 225C975.5 224.337 975.237 223.701 974.768 223.232C974.299 222.763 973.663 222.5 973 222.5C972.337 222.5 971.701 222.763 971.232 223.232C970.763 223.701 970.5 224.337 970.5 225V225Z" stroke="#2177CC"/>
<path d="M970.5 255C970.5 255.663 970.763 256.299 971.232 256.768C971.701 257.237 972.337 257.5 973 257.5C973.663 257.5 974.299 257.237 974.768 256.768C975.237 256.299 975.5 255.663 975.5 255C975.5 254.337 975.237 253.701 974.768 253.232C974.299 252.763 973.663 252.5 973 252.5C972.337 252.5 971.701 252.763 971.232 253.232C970.763 253.701 970.5 254.337 970.5 255V255Z" stroke="#2177CC"/>
<path d="M1004 14L1002 16L1004 14Z" stroke="#2177CC"/>
<path d="M1006 42L1000 48L1006 42Z" stroke="#2177CC"/>
<path d="M1018 60L988 90L1018 60Z" stroke="#2177CC" stroke-width="3"/>
<path d="M1000.5 105C1000.5 105.663 1000.76 106.299 1001.23 106.768C1001.7 107.237 1002.34 107.5 1003 107.5C1003.66 107.5 1004.3 107.237 1004.77 106.768C1005.24 106.299 1005.5 105.663 1005.5 105C1005.5 104.337 1005.24 103.701 1004.77 103.232C1004.3 102.763 1003.66 102.5 1003 102.5C1002.34 102.5 1001.7 102.763 1001.23 103.232C1000.76 103.701 1000.5 104.337 1000.5 105V105Z" stroke="#2177CC"/>
<path d="M1000.5 135C1000.5 135.663 1000.76 136.299 1001.23 136.768C1001.7 137.237 1002.34 137.5 1003 137.5C1003.66 137.5 1004.3 137.237 1004.77 136.768C1005.24 136.299 1005.5 135.663 1005.5 135C1005.5 134.337 1005.24 133.701 1004.77 133.232C1004.3 132.763 1003.66 132.5 1003 132.5C1002.34 132.5 1001.7 132.763 1001.23 133.232C1000.76 133.701 1000.5 134.337 1000.5 135V135Z" stroke="#2177CC"/>
<path d="M1000.5 165C1000.5 165.663 1000.76 166.299 1001.23 166.768C1001.7 167.237 1002.34 167.5 1003 167.5C1003.66 167.5 1004.3 167.237 1004.77 166.768C1005.24 166.299 1005.5 165.663 1005.5 165C1005.5 164.337 1005.24 163.701 1004.77 163.232C1004.3 162.763 1003.66 162.5 1003 162.5C1002.34 162.5 1001.7 162.763 1001.23 163.232C1000.76 163.701 1000.5 164.337 1000.5 165V165Z" stroke="#2177CC"/>
<path d="M1000.5 195C1000.5 195.663 1000.76 196.299 1001.23 196.768C1001.7 197.237 1002.34 197.5 1003 197.5C1003.66 197.5 1004.3 197.237 1004.77 196.768C1005.24 196.299 1005.5 195.663 1005.5 195C1005.5 194.337 1005.24 193.701 1004.77 193.232C1004.3 192.763 1003.66 192.5 1003 192.5C1002.34 192.5 1001.7 192.763 1001.23 193.232C1000.76 193.701 1000.5 194.337 1000.5 195V195Z" stroke="#2177CC"/>
<path d="M1004 224L1002 226L1004 224Z" stroke="#2177CC"/>
<path d="M1006 252L1000 258L1006 252Z" stroke="#2177CC"/>
<path d="M1032.5 15C1032.5 15.1326 1032.55 15.2598 1032.65 15.3536C1032.74 15.4473 1032.87 15.5 1033 15.5C1033.13 15.5 1033.26 15.4473 1033.35 15.3536C1033.45 15.2598 1033.5 15.1326 1033.5 15C1033.5 14.8674 1033.45 14.7402 1033.35 14.6464C1033.26 14.5527 1033.13 14.5 1033 14.5C1032.87 14.5 1032.74 14.5527 1032.65 14.6464C1032.55 14.7402 1032.5 14.8674 1032.5 15V15Z" stroke="#2177CC"/>
<path d="M1030.5 45C1030.5 45.663 1030.76 46.2989 1031.23 46.7678C1031.7 47.2366 1032.34 47.5 1033 47.5C1033.66 47.5 1034.3 47.2366 1034.77 46.7678C1035.24 46.2989 1035.5 45.663 1035.5 45C1035.5 44.337 1035.24 43.7011 1034.77 43.2322C1034.3 42.7634 1033.66 42.5 1033 42.5C1032.34 42.5 1031.7 42.7634 1031.23 43.2322C1030.76 43.7011 1030.5 44.337 1030.5 45V45Z" stroke="#2177CC"/>
<path d="M1036 72L1030 78L1036 72Z" stroke="#2177CC"/>
<path d="M1031.5 105C1031.5 105.398 1031.66 105.779 1031.94 106.061C1032.22 106.342 1032.6 106.5 1033 106.5C1033.4 106.5 1033.78 106.342 1034.06 106.061C1034.34 105.779 1034.5 105.398 1034.5 105C1034.5 104.602 1034.34 104.221 1034.06 103.939C1033.78 103.658 1033.4 103.5 1033 103.5C1032.6 103.5 1032.22 103.658 1031.94 103.939C1031.66 104.221 1031.5 104.602 1031.5 105V105Z" stroke="#2177CC"/>
<path d="M1036 132L1030 138L1036 132Z" stroke="#2177CC"/>
<path d="M1034 164L1032 166L1034 164Z" stroke="#2177CC"/>
<path d="M1036 192L1030 198L1036 192Z" stroke="#2177CC"/>
<path d="M1030.5 225C1030.5 225.663 1030.76 226.299 1031.23 226.768C1031.7 227.237 1032.34 227.5 1033 227.5C1033.66 227.5 1034.3 227.237 1034.77 226.768C1035.24 226.299 1035.5 225.663 1035.5 225C1035.5 224.337 1035.24 223.701 1034.77 223.232C1034.3 222.763 1033.66 222.5 1033 222.5C1032.34 222.5 1031.7 222.763 1031.23 223.232C1030.76 223.701 1030.5 224.337 1030.5 225V225Z" stroke="#2177CC"/>
<path d="M1036 252L1030 258L1036 252Z" stroke="#2177CC"/>
<path d="M1061.5 15C1061.5 15.3978 1061.66 15.7794 1061.94 16.0607C1062.22 16.342 1062.6 16.5 1063 16.5C1063.4 16.5 1063.78 16.342 1064.06 16.0607C1064.34 15.7794 1064.5 15.3978 1064.5 15C1064.5 14.6022 1064.34 14.2206 1064.06 13.9393C1063.78 13.658 1063.4 13.5 1063 13.5C1062.6 13.5 1062.22 13.658 1061.94 13.9393C1061.66 14.2206 1061.5 14.6022 1061.5 15V15Z" stroke="#2177CC"/>
<path d="M1064 44L1062 46L1064 44Z" stroke="#2177CC"/>
<path d="M1066 72L1060 78L1066 72Z" stroke="#2177CC"/>
<path d="M1060.5 105C1060.5 105.663 1060.76 106.299 1061.23 106.768C1061.7 107.237 1062.34 107.5 1063 107.5C1063.66 107.5 1064.3 107.237 1064.77 106.768C1065.24 106.299 1065.5 105.663 1065.5 105C1065.5 104.337 1065.24 103.701 1064.77 103.232C1064.3 102.763 1063.66 102.5 1063 102.5C1062.34 102.5 1061.7 102.763 1061.23 103.232C1060.76 103.701 1060.5 104.337 1060.5 105V105Z" stroke="#2177CC"/>
<path d="M1062.5 135C1062.5 135.133 1062.55 135.26 1062.65 135.354C1062.74 135.447 1062.87 135.5 1063 135.5C1063.13 135.5 1063.26 135.447 1063.35 135.354C1063.45 135.26 1063.5 135.133 1063.5 135C1063.5 134.867 1063.45 134.74 1063.35 134.646C1063.26 134.553 1063.13 134.5 1063 134.5C1062.87 134.5 1062.74 134.553 1062.65 134.646C1062.55 134.74 1062.5 134.867 1062.5 135V135Z" stroke="#2177CC"/>
<path d="M1062.5 165C1062.5 165.133 1062.55 165.26 1062.65 165.354C1062.74 165.447 1062.87 165.5 1063 165.5C1063.13 165.5 1063.26 165.447 1063.35 165.354C1063.45 165.26 1063.5 165.133 1063.5 165C1063.5 164.867 1063.45 164.74 1063.35 164.646C1063.26 164.553 1063.13 164.5 1063 164.5C1062.87 164.5 1062.74 164.553 1062.65 164.646C1062.55 164.74 1062.5 164.867 1062.5 165V165Z" stroke="#2177CC"/>
<path d="M1066 192L1060 198L1066 192Z" stroke="#2177CC"/>
<path d="M1060.5 225C1060.5 225.663 1060.76 226.299 1061.23 226.768C1061.7 227.237 1062.34 227.5 1063 227.5C1063.66 227.5 1064.3 227.237 1064.77 226.768C1065.24 226.299 1065.5 225.663 1065.5 225C1065.5 224.337 1065.24 223.701 1064.77 223.232C1064.3 222.763 1063.66 222.5 1063 222.5C1062.34 222.5 1061.7 222.763 1061.23 223.232C1060.76 223.701 1060.5 224.337 1060.5 225V225Z" stroke="#2177CC"/>
<path d="M1078 240L1048 270L1078 240Z" stroke="#2177CC" stroke-width="3"/>
<path d="M1092.5 15C1092.5 15.1326 1092.55 15.2598 1092.65 15.3536C1092.74 15.4473 1092.87 15.5 1093 15.5C1093.13 15.5 1093.26 15.4473 1093.35 15.3536C1093.45 15.2598 1093.5 15.1326 1093.5 15C1093.5 14.8674 1093.45 14.7402 1093.35 14.6464C1093.26 14.5527 1093.13 14.5 1093 14.5C1092.87 14.5 1092.74 14.5527 1092.65 14.6464C1092.55 14.7402 1092.5 14.8674 1092.5 15V15Z" stroke="#2177CC"/>
<path d="M1108 30L1078 60L1108 30Z" stroke="#2177CC" stroke-width="3"/>
<path d="M1094 74L1092 76L1094 74Z" stroke="#2177CC"/>
<path d="M1090.5 105C1090.5 105.663 1090.76 106.299 1091.23 106.768C1091.7 107.237 1092.34 107.5 1093 107.5C1093.66 107.5 1094.3 107.237 1094.77 106.768C1095.24 106.299 1095.5 105.663 1095.5 105C1095.5 104.337 1095.24 103.701 1094.77 103.232C1094.3 102.763 1093.66 102.5 1093 102.5C1092.34 102.5 1091.7 102.763 1091.23 103.232C1090.76 103.701 1090.5 104.337 1090.5 105V105Z" stroke="#2177CC"/>
<path d="M1096 132L1090 138L1096 132Z" stroke="#2177CC"/>
<path d="M1090.5 165C1090.5 165.663 1090.76 166.299 1091.23 166.768C1091.7 167.237 1092.34 167.5 1093 167.5C1093.66 167.5 1094.3 167.237 1094.77 166.768C1095.24 166.299 1095.5 165.663 1095.5 165C1095.5 164.337 1095.24 163.701 1094.77 163.232C1094.3 162.763 1093.66 162.5 1093 162.5C1092.34 162.5 1091.7 162.763 1091.23 163.232C1090.76 163.701 1090.5 164.337 1090.5 165V165Z" stroke="#2177CC"/>
<path d="M1096 192L1090 198L1096 192Z" stroke="#2177CC"/>
<path d="M1090.5 225C1090.5 225.663 1090.76 226.299 1091.23 226.768C1091.7 227.237 1092.34 227.5 1093 227.5C1093.66 227.5 1094.3 227.237 1094.77 226.768C1095.24 226.299 1095.5 225.663 1095.5 225C1095.5 224.337 1095.24 223.701 1094.77 223.232C1094.3 222.763 1093.66 222.5 1093 222.5C1092.34 222.5 1091.7 222.763 1091.23 223.232C1090.76 223.701 1090.5 224.337 1090.5 225V225Z" stroke="#2177CC"/>
<path d="M1096 252L1090 258L1096 252Z" stroke="#2177CC"/>
<path d="M1120.5 15C1120.5 15.663 1120.76 16.2989 1121.23 16.7678C1121.7 17.2366 1122.34 17.5 1123 17.5C1123.66 17.5 1124.3 17.2366 1124.77 16.7678C1125.24 16.2989 1125.5 15.663 1125.5 15C1125.5 14.337 1125.24 13.7011 1124.77 13.2322C1124.3 12.7634 1123.66 12.5 1123 12.5C1122.34 12.5 1121.7 12.7634 1121.23 13.2322C1120.76 13.7011 1120.5 14.337 1120.5 15V15Z" stroke="#2177CC"/>
<path d="M1120.5 45C1120.5 45.663 1120.76 46.2989 1121.23 46.7678C1121.7 47.2366 1122.34 47.5 1123 47.5C1123.66 47.5 1124.3 47.2366 1124.77 46.7678C1125.24 46.2989 1125.5 45.663 1125.5 45C1125.5 44.337 1125.24 43.7011 1124.77 43.2322C1124.3 42.7634 1123.66 42.5 1123 42.5C1122.34 42.5 1121.7 42.7634 1121.23 43.2322C1120.76 43.7011 1120.5 44.337 1120.5 45V45Z" stroke="#2177CC"/>
<path d="M1121.5 75C1121.5 75.3978 1121.66 75.7794 1121.94 76.0607C1122.22 76.342 1122.6 76.5 1123 76.5C1123.4 76.5 1123.78 76.342 1124.06 76.0607C1124.34 75.7794 1124.5 75.3978 1124.5 75C1124.5 74.6022 1124.34 74.2206 1124.06 73.9393C1123.78 73.658 1123.4 73.5 1123 73.5C1122.6 73.5 1122.22 73.658 1121.94 73.9393C1121.66 74.2206 1121.5 74.6022 1121.5 75V75Z" stroke="#2177CC"/>
<path d="M1121.5 105C1121.5 105.398 1121.66 105.779 1121.94 106.061C1122.22 106.342 1122.6 106.5 1123 106.5C1123.4 106.5 1123.78 106.342 1124.06 106.061C1124.34 105.779 1124.5 105.398 1124.5 105C1124.5 104.602 1124.34 104.221 1124.06 103.939C1123.78 103.658 1123.4 103.5 1123 103.5C1122.6 103.5 1122.22 103.658 1121.94 103.939C1121.66 104.221 1121.5 104.602 1121.5 105V105Z" stroke="#2177CC"/>
<path d="M1126 132L1120 138L1126 132Z" stroke="#2177CC"/>
<path d="M1126 162L1120 168L1126 162Z" stroke="#2177CC"/>
<path d="M1124 194L1122 196L1124 194Z" stroke="#2177CC"/>
<path d="M1122.5 225C1122.5 225.133 1122.55 225.26 1122.65 225.354C1122.74 225.447 1122.87 225.5 1123 225.5C1123.13 225.5 1123.26 225.447 1123.35 225.354C1123.45 225.26 1123.5 225.133 1123.5 225C1123.5 224.867 1123.45 224.74 1123.35 224.646C1123.26 224.553 1123.13 224.5 1123 224.5C1122.87 224.5 1122.74 224.553 1122.65 224.646C1122.55 224.74 1122.5 224.867 1122.5 225V225Z" stroke="#2177CC"/>
<path d="M1126 252L1120 258L1126 252Z" stroke="#2177CC"/>
<path d="M1151.5 15C1151.5 15.3978 1151.66 15.7794 1151.94 16.0607C1152.22 16.342 1152.6 16.5 1153 16.5C1153.4 16.5 1153.78 16.342 1154.06 16.0607C1154.34 15.7794 1154.5 15.3978 1154.5 15C1154.5 14.6022 1154.34 14.2206 1154.06 13.9393C1153.78 13.658 1153.4 13.5 1153 13.5C1152.6 13.5 1152.22 13.658 1151.94 13.9393C1151.66 14.2206 1151.5 14.6022 1151.5 15V15Z" stroke="#2177CC"/>
<path d="M1156 42L1150 48L1156 42Z" stroke="#2177CC"/>
<path d="M1156 72L1150 78L1156 72Z" stroke="#2177CC"/>
<path d="M1154 104L1152 106L1154 104Z" stroke="#2177CC"/>
<path d="M1156 132L1150 138L1156 132Z" stroke="#2177CC"/>
<path d="M1150.5 165C1150.5 165.663 1150.76 166.299 1151.23 166.768C1151.7 167.237 1152.34 167.5 1153 167.5C1153.66 167.5 1154.3 167.237 1154.77 166.768C1155.24 166.299 1155.5 165.663 1155.5 165C1155.5 164.337 1155.24 163.701 1154.77 163.232C1154.3 162.763 1153.66 162.5 1153 162.5C1152.34 162.5 1151.7 162.763 1151.23 163.232C1150.76 163.701 1150.5 164.337 1150.5 165V165Z" stroke="#2177CC"/>
<path d="M1150.5 195C1150.5 195.663 1150.76 196.299 1151.23 196.768C1151.7 197.237 1152.34 197.5 1153 197.5C1153.66 197.5 1154.3 197.237 1154.77 196.768C1155.24 196.299 1155.5 195.663 1155.5 195C1155.5 194.337 1155.24 193.701 1154.77 193.232C1154.3 192.763 1153.66 192.5 1153 192.5C1152.34 192.5 1151.7 192.763 1151.23 193.232C1150.76 193.701 1150.5 194.337 1150.5 195V195Z" stroke="#2177CC"/>
<path d="M1150.5 225C1150.5 225.663 1150.76 226.299 1151.23 226.768C1151.7 227.237 1152.34 227.5 1153 227.5C1153.66 227.5 1154.3 227.237 1154.77 226.768C1155.24 226.299 1155.5 225.663 1155.5 225C1155.5 224.337 1155.24 223.701 1154.77 223.232C1154.3 222.763 1153.66 222.5 1153 222.5C1152.34 222.5 1151.7 222.763 1151.23 223.232C1150.76 223.701 1150.5 224.337 1150.5 225V225Z" stroke="#2177CC"/>
<path d="M1156 252L1150 258L1156 252Z" stroke="#2177CC"/>
<path d="M1168 270L1138 300L1168 270Z" stroke="#2177CC" stroke-width="3"/>
<path d="M1180.5 15C1180.5 15.663 1180.76 16.2989 1181.23 16.7678C1181.7 17.2366 1182.34 17.5 1183 17.5C1183.66 17.5 1184.3 17.2366 1184.77 16.7678C1185.24 16.2989 1185.5 15.663 1185.5 15C1185.5 14.337 1185.24 13.7011 1184.77 13.2322C1184.3 12.7634 1183.66 12.5 1183 12.5C1182.34 12.5 1181.7 12.7634 1181.23 13.2322C1180.76 13.7011 1180.5 14.337 1180.5 15V15Z" stroke="#2177CC"/>
<path d="M1180.5 45C1180.5 45.663 1180.76 46.2989 1181.23 46.7678C1181.7 47.2366 1182.34 47.5 1183 47.5C1183.66 47.5 1184.3 47.2366 1184.77 46.7678C1185.24 46.2989 1185.5 45.663 1185.5 45C1185.5 44.337 1185.24 43.7011 1184.77 43.2322C1184.3 42.7634 1183.66 42.5 1183 42.5C1182.34 42.5 1181.7 42.7634 1181.23 43.2322C1180.76 43.7011 1180.5 44.337 1180.5 45V45Z" stroke="#2177CC"/>
<path d="M1181.5 75C1181.5 75.3978 1181.66 75.7794 1181.94 76.0607C1182.22 76.342 1182.6 76.5 1183 76.5C1183.4 76.5 1183.78 76.342 1184.06 76.0607C1184.34 75.7794 1184.5 75.3978 1184.5 75C1184.5 74.6022 1184.34 74.2206 1184.06 73.9393C1183.78 73.658 1183.4 73.5 1183 73.5C1182.6 73.5 1182.22 73.658 1181.94 73.9393C1181.66 74.2206 1181.5 74.6022 1181.5 75V75Z" stroke="#2177CC"/>
<path d="M1180.5 105C1180.5 105.663 1180.76 106.299 1181.23 106.768C1181.7 107.237 1182.34 107.5 1183 107.5C1183.66 107.5 1184.3 107.237 1184.77 106.768C1185.24 106.299 1185.5 105.663 1185.5 105C1185.5 104.337 1185.24 103.701 1184.77 103.232C1184.3 102.763 1183.66 102.5 1183 102.5C1182.34 102.5 1181.7 102.763 1181.23 103.232C1180.76 103.701 1180.5 104.337 1180.5 105V105Z" stroke="#2177CC"/>
<path d="M1184 134L1182 136L1184 134Z" stroke="#2177CC"/>
<path d="M1181.5 165C1181.5 165.398 1181.66 165.779 1181.94 166.061C1182.22 166.342 1182.6 166.5 1183 166.5C1183.4 166.5 1183.78 166.342 1184.06 166.061C1184.34 165.779 1184.5 165.398 1184.5 165C1184.5 164.602 1184.34 164.221 1184.06 163.939C1183.78 163.658 1183.4 163.5 1183 163.5C1182.6 163.5 1182.22 163.658 1181.94 163.939C1181.66 164.221 1181.5 164.602 1181.5 165V165Z" stroke="#2177CC"/>
<path d="M1186 192L1180 198L1186 192Z" stroke="#2177CC"/>
<path d="M1184 224L1182 226L1184 224Z" stroke="#2177CC"/>
<path d="M1180.5 255C1180.5 255.663 1180.76 256.299 1181.23 256.768C1181.7 257.237 1182.34 257.5 1183 257.5C1183.66 257.5 1184.3 257.237 1184.77 256.768C1185.24 256.299 1185.5 255.663 1185.5 255C1185.5 254.337 1185.24 253.701 1184.77 253.232C1184.3 252.763 1183.66 252.5 1183 252.5C1182.34 252.5 1181.7 252.763 1181.23 253.232C1180.76 253.701 1180.5 254.337 1180.5 255V255Z" stroke="#2177CC"/>
<path d="M1210.5 15C1210.5 15.663 1210.76 16.2989 1211.23 16.7678C1211.7 17.2366 1212.34 17.5 1213 17.5C1213.66 17.5 1214.3 17.2366 1214.77 16.7678C1215.24 16.2989 1215.5 15.663 1215.5 15C1215.5 14.337 1215.24 13.7011 1214.77 13.2322C1214.3 12.7634 1213.66 12.5 1213 12.5C1212.34 12.5 1211.7 12.7634 1211.23 13.2322C1210.76 13.7011 1210.5 14.337 1210.5 15V15Z" stroke="#2177CC"/>
<path d="M1211.5 45C1211.5 45.3978 1211.66 45.7794 1211.94 46.0607C1212.22 46.342 1212.6 46.5 1213 46.5C1213.4 46.5 1213.78 46.342 1214.06 46.0607C1214.34 45.7794 1214.5 45.3978 1214.5 45C1214.5 44.6022 1214.34 44.2206 1214.06 43.9393C1213.78 43.658 1213.4 43.5 1213 43.5C1212.6 43.5 1212.22 43.658 1211.94 43.9393C1211.66 44.2206 1211.5 44.6022 1211.5 45V45Z" stroke="#2177CC"/>
<path d="M1210.5 75C1210.5 75.663 1210.76 76.2989 1211.23 76.7678C1211.7 77.2366 1212.34 77.5 1213 77.5C1213.66 77.5 1214.3 77.2366 1214.77 76.7678C1215.24 76.2989 1215.5 75.663 1215.5 75C1215.5 74.337 1215.24 73.7011 1214.77 73.2322C1214.3 72.7634 1213.66 72.5 1213 72.5C1212.34 72.5 1211.7 72.7634 1211.23 73.2322C1210.76 73.7011 1210.5 74.337 1210.5 75V75Z" stroke="#2177CC"/>
<path d="M1228 90L1198 120L1228 90Z" stroke="#2177CC" stroke-width="3"/>
<path d="M1216 132L1210 138L1216 132Z" stroke="#2177CC"/>
<path d="M1214 164L1212 166L1214 164Z" stroke="#2177CC"/>
<path d="M1214 194L1212 196L1214 194Z" stroke="#2177CC"/>
<path d="M1216 222L1210 228L1216 222Z" stroke="#2177CC"/>
<path d="M1216 252L1210 258L1216 252Z" stroke="#2177CC"/>
<path d="M1240.5 15C1240.5 15.663 1240.76 16.2989 1241.23 16.7678C1241.7 17.2366 1242.34 17.5 1243 17.5C1243.66 17.5 1244.3 17.2366 1244.77 16.7678C1245.24 16.2989 1245.5 15.663 1245.5 15C1245.5 14.337 1245.24 13.7011 1244.77 13.2322C1244.3 12.7634 1243.66 12.5 1243 12.5C1242.34 12.5 1241.7 12.7634 1241.23 13.2322C1240.76 13.7011 1240.5 14.337 1240.5 15V15Z" stroke="#2177CC"/>
<path d="M1246 42L1240 48L1246 42Z" stroke="#2177CC"/>
<path d="M1246 72L1240 78L1246 72Z" stroke="#2177CC"/>
<path d="M1240.5 105C1240.5 105.663 1240.76 106.299 1241.23 106.768C1241.7 107.237 1242.34 107.5 1243 107.5C1243.66 107.5 1244.3 107.237 1244.77 106.768C1245.24 106.299 1245.5 105.663 1245.5 105C1245.5 104.337 1245.24 103.701 1244.77 103.232C1244.3 102.763 1243.66 102.5 1243 102.5C1242.34 102.5 1241.7 102.763 1241.23 103.232C1240.76 103.701 1240.5 104.337 1240.5 105V105Z" stroke="#2177CC"/>
<path d="M1244 134L1242 136L1244 134Z" stroke="#2177CC"/>
<path d="M1246 162L1240 168L1246 162Z" stroke="#2177CC"/>
<path d="M1258 180L1228 210L1258 180Z" stroke="#2177CC" stroke-width="3"/>
<path d="M1240.5 225C1240.5 225.663 1240.76 226.299 1241.23 226.768C1241.7 227.237 1242.34 227.5 1243 227.5C1243.66 227.5 1244.3 227.237 1244.77 226.768C1245.24 226.299 1245.5 225.663 1245.5 225C1245.5 224.337 1245.24 223.701 1244.77 223.232C1244.3 222.763 1243.66 222.5 1243 222.5C1242.34 222.5 1241.7 222.763 1241.23 223.232C1240.76 223.701 1240.5 224.337 1240.5 225V225Z" stroke="#2177CC"/>
<path d="M1244 254L1242 256L1244 254Z" stroke="#2177CC"/>
<path d="M1288 0L1258 30L1288 0Z" stroke="#2177CC" stroke-width="3"/>
<path d="M1270.5 45C1270.5 45.663 1270.76 46.2989 1271.23 46.7678C1271.7 47.2366 1272.34 47.5 1273 47.5C1273.66 47.5 1274.3 47.2366 1274.77 46.7678C1275.24 46.2989 1275.5 45.663 1275.5 45C1275.5 44.337 1275.24 43.7011 1274.77 43.2322C1274.3 42.7634 1273.66 42.5 1273 42.5C1272.34 42.5 1271.7 42.7634 1271.23 43.2322C1270.76 43.7011 1270.5 44.337 1270.5 45V45Z" stroke="#2177CC"/>
<path d="M1276 72L1270 78L1276 72Z" stroke="#2177CC"/>
<path d="M1272.5 105C1272.5 105.133 1272.55 105.26 1272.65 105.354C1272.74 105.447 1272.87 105.5 1273 105.5C1273.13 105.5 1273.26 105.447 1273.35 105.354C1273.45 105.26 1273.5 105.133 1273.5 105C1273.5 104.867 1273.45 104.74 1273.35 104.646C1273.26 104.553 1273.13 104.5 1273 104.5C1272.87 104.5 1272.74 104.553 1272.65 104.646C1272.55 104.74 1272.5 104.867 1272.5 105V105Z" stroke="#2177CC"/>
<path d="M1276 132L1270 138L1276 132Z" stroke="#2177CC"/>
<path d="M1276 162L1270 168L1276 162Z" stroke="#2177CC"/>
<path d="M1274 194L1272 196L1274 194Z" stroke="#2177CC"/>
<path d="M1274 224L1272 226L1274 224Z" stroke="#2177CC"/>
<path d="M1274 254L1272 256L1274 254Z" stroke="#2177CC"/>
<path d="M1306 12L1300 18L1306 12Z" stroke="#2177CC"/>
<path d="M1301.5 45C1301.5 45.3978 1301.66 45.7794 1301.94 46.0607C1302.22 46.342 1302.6 46.5 1303 46.5C1303.4 46.5 1303.78 46.342 1304.06 46.0607C1304.34 45.7794 1304.5 45.3978 1304.5 45C1304.5 44.6022 1304.34 44.2206 1304.06 43.9393C1303.78 43.658 1303.4 43.5 1303 43.5C1302.6 43.5 1302.22 43.658 1301.94 43.9393C1301.66 44.2206 1301.5 44.6022 1301.5 45V45Z" stroke="#2177CC"/>
<path d="M1304 74L1302 76L1304 74Z" stroke="#2177CC"/>
<path d="M1306 102L1300 108L1306 102Z" stroke="#2177CC"/>
<path d="M1304 134L1302 136L1304 134Z" stroke="#2177CC"/>
<path d="M1306 162L1300 168L1306 162Z" stroke="#2177CC"/>
<path d="M1306 192L1300 198L1306 192Z" stroke="#2177CC"/>
<path d="M1300.5 225C1300.5 225.663 1300.76 226.299 1301.23 226.768C1301.7 227.237 1302.34 227.5 1303 227.5C1303.66 227.5 1304.3 227.237 1304.77 226.768C1305.24 226.299 1305.5 225.663 1305.5 225C1305.5 224.337 1305.24 223.701 1304.77 223.232C1304.3 222.763 1303.66 222.5 1303 222.5C1302.34 222.5 1301.7 222.763 1301.23 223.232C1300.76 223.701 1300.5 224.337 1300.5 225V225Z" stroke="#2177CC"/>
<path d="M1306 252L1300 258L1306 252Z" stroke="#2177CC"/>
<path d="M1318 270L1288 300L1318 270Z" stroke="#2177CC" stroke-width="3"/>
<path d="M1330.5 15C1330.5 15.663 1330.76 16.2989 1331.23 16.7678C1331.7 17.2366 1332.34 17.5 1333 17.5C1333.66 17.5 1334.3 17.2366 1334.77 16.7678C1335.24 16.2989 1335.5 15.663 1335.5 15C1335.5 14.337 1335.24 13.7011 1334.77 13.2322C1334.3 12.7634 1333.66 12.5 1333 12.5C1332.34 12.5 1331.7 12.7634 1331.23 13.2322C1330.76 13.7011 1330.5 14.337 1330.5 15V15Z" stroke="#2177CC"/>
<path d="M1336 42L1330 48L1336 42Z" stroke="#2177CC"/>
<path d="M1336 72L1330 78L1336 72Z" stroke="#2177CC"/>
<path d="M1332.5 105C1332.5 105.133 1332.55 105.26 1332.65 105.354C1332.74 105.447 1332.87 105.5 1333 105.5C1333.13 105.5 1333.26 105.447 1333.35 105.354C1333.45 105.26 1333.5 105.133 1333.5 105C1333.5 104.867 1333.45 104.74 1333.35 104.646C1333.26 104.553 1333.13 104.5 1333 104.5C1332.87 104.5 1332.74 104.553 1332.65 104.646C1332.55 104.74 1332.5 104.867 1332.5 105V105Z" stroke="#2177CC"/>
<path d="M1336 132L1330 138L1336 132Z" stroke="#2177CC"/>
<path d="M1330.5 165C1330.5 165.663 1330.76 166.299 1331.23 166.768C1331.7 167.237 1332.34 167.5 1333 167.5C1333.66 167.5 1334.3 167.237 1334.77 166.768C1335.24 166.299 1335.5 165.663 1335.5 165C1335.5 164.337 1335.24 163.701 1334.77 163.232C1334.3 162.763 1333.66 162.5 1333 162.5C1332.34 162.5 1331.7 162.763 1331.23 163.232C1330.76 163.701 1330.5 164.337 1330.5 165V165Z" stroke="#2177CC"/>
<path d="M1332.5 195C1332.5 195.133 1332.55 195.26 1332.65 195.354C1332.74 195.447 1332.87 195.5 1333 195.5C1333.13 195.5 1333.26 195.447 1333.35 195.354C1333.45 195.26 1333.5 195.133 1333.5 195C1333.5 194.867 1333.45 194.74 1333.35 194.646C1333.26 194.553 1333.13 194.5 1333 194.5C1332.87 194.5 1332.74 194.553 1332.65 194.646C1332.55 194.74 1332.5 194.867 1332.5 195V195Z" stroke="#2177CC"/>
<path d="M1330.5 225C1330.5 225.663 1330.76 226.299 1331.23 226.768C1331.7 227.237 1332.34 227.5 1333 227.5C1333.66 227.5 1334.3 227.237 1334.77 226.768C1335.24 226.299 1335.5 225.663 1335.5 225C1335.5 224.337 1335.24 223.701 1334.77 223.232C1334.3 222.763 1333.66 222.5 1333 222.5C1332.34 222.5 1331.7 222.763 1331.23 223.232C1330.76 223.701 1330.5 224.337 1330.5 225V225Z" stroke="#2177CC"/>
<path d="M1330.5 255C1330.5 255.663 1330.76 256.299 1331.23 256.768C1331.7 257.237 1332.34 257.5 1333 257.5C1333.66 257.5 1334.3 257.237 1334.77 256.768C1335.24 256.299 1335.5 255.663 1335.5 255C1335.5 254.337 1335.24 253.701 1334.77 253.232C1334.3 252.763 1333.66 252.5 1333 252.5C1332.34 252.5 1331.7 252.763 1331.23 253.232C1330.76 253.701 1330.5 254.337 1330.5 255V255Z" stroke="#2177CC"/>
<path d="M1364 14L1362 16L1364 14Z" stroke="#2177CC"/>
<path d="M1366 42L1360 48L1366 42Z" stroke="#2177CC"/>
<path d="M1378 60L1348 90L1378 60Z" stroke="#2177CC" stroke-width="3"/>
<path d="M1360.5 105C1360.5 105.663 1360.76 106.299 1361.23 106.768C1361.7 107.237 1362.34 107.5 1363 107.5C1363.66 107.5 1364.3 107.237 1364.77 106.768C1365.24 106.299 1365.5 105.663 1365.5 105C1365.5 104.337 1365.24 103.701 1364.77 103.232C1364.3 102.763 1363.66 102.5 1363 102.5C1362.34 102.5 1361.7 102.763 1361.23 103.232C1360.76 103.701 1360.5 104.337 1360.5 105V105Z" stroke="#2177CC"/>
<path d="M1360.5 135C1360.5 135.663 1360.76 136.299 1361.23 136.768C1361.7 137.237 1362.34 137.5 1363 137.5C1363.66 137.5 1364.3 137.237 1364.77 136.768C1365.24 136.299 1365.5 135.663 1365.5 135C1365.5 134.337 1365.24 133.701 1364.77 133.232C1364.3 132.763 1363.66 132.5 1363 132.5C1362.34 132.5 1361.7 132.763 1361.23 133.232C1360.76 133.701 1360.5 134.337 1360.5 135V135Z" stroke="#2177CC"/>
<path d="M1360.5 165C1360.5 165.663 1360.76 166.299 1361.23 166.768C1361.7 167.237 1362.34 167.5 1363 167.5C1363.66 167.5 1364.3 167.237 1364.77 166.768C1365.24 166.299 1365.5 165.663 1365.5 165C1365.5 164.337 1365.24 163.701 1364.77 163.232C1364.3 162.763 1363.66 162.5 1363 162.5C1362.34 162.5 1361.7 162.763 1361.23 163.232C1360.76 163.701 1360.5 164.337 1360.5 165V165Z" stroke="#2177CC"/>
<path d="M1360.5 195C1360.5 195.663 1360.76 196.299 1361.23 196.768C1361.7 197.237 1362.34 197.5 1363 197.5C1363.66 197.5 1364.3 197.237 1364.77 196.768C1365.24 196.299 1365.5 195.663 1365.5 195C1365.5 194.337 1365.24 193.701 1364.77 193.232C1364.3 192.763 1363.66 192.5 1363 192.5C1362.34 192.5 1361.7 192.763 1361.23 193.232C1360.76 193.701 1360.5 194.337 1360.5 195V195Z" stroke="#2177CC"/>
<path d="M1364 224L1362 226L1364 224Z" stroke="#2177CC"/>
<path d="M1366 252L1360 258L1366 252Z" stroke="#2177CC"/>
<path d="M1392.5 15C1392.5 15.1326 1392.55 15.2598 1392.65 15.3536C1392.74 15.4473 1392.87 15.5 1393 15.5C1393.13 15.5 1393.26 15.4473 1393.35 15.3536C1393.45 15.2598 1393.5 15.1326 1393.5 15C1393.5 14.8674 1393.45 14.7402 1393.35 14.6464C1393.26 14.5527 1393.13 14.5 1393 14.5C1392.87 14.5 1392.74 14.5527 1392.65 14.6464C1392.55 14.7402 1392.5 14.8674 1392.5 15V15Z" stroke="#2177CC"/>
<path d="M1390.5 45C1390.5 45.663 1390.76 46.2989 1391.23 46.7678C1391.7 47.2366 1392.34 47.5 1393 47.5C1393.66 47.5 1394.3 47.2366 1394.77 46.7678C1395.24 46.2989 1395.5 45.663 1395.5 45C1395.5 44.337 1395.24 43.7011 1394.77 43.2322C1394.3 42.7634 1393.66 42.5 1393 42.5C1392.34 42.5 1391.7 42.7634 1391.23 43.2322C1390.76 43.7011 1390.5 44.337 1390.5 45V45Z" stroke="#2177CC"/>
<path d="M1396 72L1390 78L1396 72Z" stroke="#2177CC"/>
<path d="M1391.5 105C1391.5 105.398 1391.66 105.779 1391.94 106.061C1392.22 106.342 1392.6 106.5 1393 106.5C1393.4 106.5 1393.78 106.342 1394.06 106.061C1394.34 105.779 1394.5 105.398 1394.5 105C1394.5 104.602 1394.34 104.221 1394.06 103.939C1393.78 103.658 1393.4 103.5 1393 103.5C1392.6 103.5 1392.22 103.658 1391.94 103.939C1391.66 104.221 1391.5 104.602 1391.5 105V105Z" stroke="#2177CC"/>
<path d="M1396 132L1390 138L1396 132Z" stroke="#2177CC"/>
<path d="M1394 164L1392 166L1394 164Z" stroke="#2177CC"/>
<path d="M1396 192L1390 198L1396 192Z" stroke="#2177CC"/>
<path d="M1390.5 225C1390.5 225.663 1390.76 226.299 1391.23 226.768C1391.7 227.237 1392.34 227.5 1393 227.5C1393.66 227.5 1394.3 227.237 1394.77 226.768C1395.24 226.299 1395.5 225.663 1395.5 225C1395.5 224.337 1395.24 223.701 1394.77 223.232C1394.3 222.763 1393.66 222.5 1393 222.5C1392.34 222.5 1391.7 222.763 1391.23 223.232C1390.76 223.701 1390.5 224.337 1390.5 225V225Z" stroke="#2177CC"/>
<path d="M1396 252L1390 258L1396 252Z" stroke="#2177CC"/>
<path d="M1421.5 15C1421.5 15.3978 1421.66 15.7794 1421.94 16.0607C1422.22 16.342 1422.6 16.5 1423 16.5C1423.4 16.5 1423.78 16.342 1424.06 16.0607C1424.34 15.7794 1424.5 15.3978 1424.5 15C1424.5 14.6022 1424.34 14.2206 1424.06 13.9393C1423.78 13.658 1423.4 13.5 1423 13.5C1422.6 13.5 1422.22 13.658 1421.94 13.9393C1421.66 14.2206 1421.5 14.6022 1421.5 15V15Z" stroke="#2177CC"/>
<path d="M1424 44L1422 46L1424 44Z" stroke="#2177CC"/>
<path d="M1426 72L1420 78L1426 72Z" stroke="#2177CC"/>
<path d="M1420.5 105C1420.5 105.663 1420.76 106.299 1421.23 106.768C1421.7 107.237 1422.34 107.5 1423 107.5C1423.66 107.5 1424.3 107.237 1424.77 106.768C1425.24 106.299 1425.5 105.663 1425.5 105C1425.5 104.337 1425.24 103.701 1424.77 103.232C1424.3 102.763 1423.66 102.5 1423 102.5C1422.34 102.5 1421.7 102.763 1421.23 103.232C1420.76 103.701 1420.5 104.337 1420.5 105V105Z" stroke="#2177CC"/>
<path d="M1422.5 135C1422.5 135.133 1422.55 135.26 1422.65 135.354C1422.74 135.447 1422.87 135.5 1423 135.5C1423.13 135.5 1423.26 135.447 1423.35 135.354C1423.45 135.26 1423.5 135.133 1423.5 135C1423.5 134.867 1423.45 134.74 1423.35 134.646C1423.26 134.553 1423.13 134.5 1423 134.5C1422.87 134.5 1422.74 134.553 1422.65 134.646C1422.55 134.74 1422.5 134.867 1422.5 135V135Z" stroke="#2177CC"/>
<path d="M1422.5 165C1422.5 165.133 1422.55 165.26 1422.65 165.354C1422.74 165.447 1422.87 165.5 1423 165.5C1423.13 165.5 1423.26 165.447 1423.35 165.354C1423.45 165.26 1423.5 165.133 1423.5 165C1423.5 164.867 1423.45 164.74 1423.35 164.646C1423.26 164.553 1423.13 164.5 1423 164.5C1422.87 164.5 1422.74 164.553 1422.65 164.646C1422.55 164.74 1422.5 164.867 1422.5 165V165Z" stroke="#2177CC"/>
<path d="M1426 192L1420 198L1426 192Z" stroke="#2177CC"/>
<path d="M1420.5 225C1420.5 225.663 1420.76 226.299 1421.23 226.768C1421.7 227.237 1422.34 227.5 1423 227.5C1423.66 227.5 1424.3 227.237 1424.77 226.768C1425.24 226.299 1425.5 225.663 1425.5 225C1425.5 224.337 1425.24 223.701 1424.77 223.232C1424.3 222.763 1423.66 222.5 1423 222.5C1422.34 222.5 1421.7 222.763 1421.23 223.232C1420.76 223.701 1420.5 224.337 1420.5 225V225Z" stroke="#2177CC"/>
<path d="M1438 240L1408 270L1438 240Z" stroke="#2177CC" stroke-width="3"/>
</g>
<defs>
<clipPath id="clip0_505_2">
<rect width="720" height="280" fill="white"/>
</clipPath>
<clipPath id="clip1_505_2">
<rect width="720" height="280" fill="white" transform="translate(718)"/>
</clipPath>
</defs>
</svg>
