<?xml version="1.0" encoding="UTF-8"?>
<svg preserveAspectRatio="none" version="1.1" viewBox="0 0 1440 430" xmlns="http://www.w3.org/2000/svg">
<g fill="none" mask="url(#g)">
<rect width="1440" height="430" fill="rgba(31, 58, 138, 1)"/>
<rect transform="rotate(-85.97 40.83 159.72)" x="10.83" y="129.72" width="60" height="60" clip-path="url(#m)" fill="url(#f)"/>
<path d="m410.77 289.27 35.15-4.49-40.49-20.67z" stroke="rgba(27, 134, 241, 1)" stroke-dasharray="4, 4" stroke-width="2.99"/>
<circle cx="21.12" cy="429.54" r="67.995" stroke="rgba(27, 134, 241, 1)" stroke-dasharray="2, 2" stroke-width="2.7"/>
<path d="m246.98 218.15a5.6 5.6 0 1 0-10.06 4.93 5.6 5.6 0 1 0 10.06-4.93zm-14.37 7.04a5.6 5.6 0 1 0-10.05 4.92 5.6 5.6 0 1 0 10.05-4.92zm-14.37 7.04a5.6 5.6 0 1 0-10.05 4.92 5.6 5.6 0 1 0 10.05-4.92zm-14.36 7.04a5.6 5.6 0 1 0-10.06 4.92 5.6 5.6 0 1 0 10.06-4.92z" fill="rgba(27, 134, 241, 1)"/>
<rect transform="rotate(-25.98 1386.6 344.21)" x="1265.8" y="223.31" width="241.8" height="241.8" clip-path="url(#l)" fill="url(#e)"/>
<circle cx="288.23" cy="151.84" r="63.636" stroke="rgba(27, 134, 241, 1)"/>
<path d="m463.91 433.24-30.22-3.68-3.395 20.345z" stroke="rgba(27, 134, 241, 1)" stroke-dasharray="3, 3" stroke-width="2.26"/>
<rect transform="rotate(28.39 661.67 355.99)" x="571.67" y="265.99" width="180" height="180" clip-path="url(#k)" fill="url(#d)"/>
<path d="m512.22 324.68a5.6 5.6 0 1 0-11.06-1.76 5.6 5.6 0 1 0 11.06 1.76zm-15.8-2.51a5.6 5.6 0 1 0-11.06-1.76 5.6 5.6 0 1 0 11.06 1.76zm-15.8-2.51a5.6 5.6 0 1 0-11.06-1.76 5.6 5.6 0 1 0 11.06 1.76zm-15.8-2.51a5.6 5.6 0 1 0-11.06-1.76 5.6 5.6 0 1 0 11.06 1.76zm81.52-3.25a5.6 5.6 0 1 0-11.06-1.76 5.6 5.6 0 1 0 11.06 1.76zm-15.8-2.51a5.6 5.6 0 1 0-11.07-1.76 5.6 5.6 0 1 0 11.07 1.76zm-15.81-2.51a5.6 5.6 0 1 0-11.06-1.76 5.6 5.6 0 1 0 11.06 1.76zm-15.8-2.51a5.6 5.6 0 1 0-11.06-1.76 5.6 5.6 0 1 0 11.06 1.76z" fill="rgba(27, 134, 241, 1)"/>
<path d="m460.74 89.56-11.95-4.63 1.89-12.66-11.94-4.62 1.88-12.67-11.94-4.62 1.88-12.67m37.09 47.84-11.94-4.62 1.88-12.67-11.94-4.62 1.89-12.66-11.95-4.62 1.89-12.67" stroke="rgba(27, 134, 241, 1)" stroke-dasharray="3, 2"/>
<rect transform="rotate(-52.47 20.57 215.77)" x="-15.43" y="179.77" width="72" height="72" clip-path="url(#j)" fill="url(#c)"/>
<path d="m820.24 296.26-42.78-38.28-7.5226 48.053z" stroke="rgba(27, 134, 241, 1)" stroke-dasharray="3, 3" stroke-width="2.19"/>
<path d="m56.09 141.03 9.61 8.47-6.16 11.23 9.6 8.47-6.15 11.23 9.6 8.48-6.15 11.22" stroke="rgba(27, 134, 241, 1)" stroke-width="2.58"/>
<rect transform="rotate(147.25 1091.1 248.04)" x="1035.8" y="192.74" width="110.6" height="110.6" clip-path="url(#i)" fill="url(#b)"/>
<rect transform="rotate(-89.91 118.79 360.01)" x="-3.09" y="238.13" width="243.76" height="243.76" clip-path="url(#h)" fill="url(#a)"/>
<circle cx="705.88" cy="31.16" r="40.974" fill="rgba(27, 134, 241, 1)"/>
</g>
<defs>
<mask id="g">
<rect width="1440" height="430" fill="#fff"/>
</mask>
<pattern id="f" width="6" height="6" patternUnits="userSpaceOnUse">
<path d="m0 6 3-6 3 6" fill="none" stroke="rgba(27, 134, 241, 1)"/>
</pattern>
<clipPath id="m">
<circle cx="40.83" cy="159.72" r="15"/>
</clipPath>
<pattern id="e" width="9.3" height="9.3" patternUnits="userSpaceOnUse">
<path d="m4.65 1v7.3m-3.65-3.65h7.3" fill="none" stroke="rgba(27, 134, 241, 1)" stroke-width="3.14"/>
</pattern>
<clipPath id="l">
<circle cx="1386.6" cy="344.21" r="60.45"/>
</clipPath>
<pattern id="d" width="6" height="6" patternUnits="userSpaceOnUse">
<path d="m0 6 3-6 3 6" fill="none" stroke="rgba(27, 134, 241, 1)"/>
</pattern>
<clipPath id="k">
<circle cx="661.67" cy="355.99" r="45"/>
</clipPath>
<pattern id="c" width="6" height="6" patternUnits="userSpaceOnUse">
<path d="m3 1v4m-2-2h4" fill="none" stroke="rgba(27, 134, 241, 1)"/>
</pattern>
<clipPath id="j">
<circle cx="20.57" cy="215.77" r="18"/>
</clipPath>
<pattern id="b" width="11.06" height="11.06" patternUnits="userSpaceOnUse">
<path d="m5.53 1v9.06m-4.53-4.53h9.06" fill="none" stroke="rgba(27, 134, 241, 1)" stroke-width="1.43"/>
</pattern>
<clipPath id="i">
<circle cx="1091.1" cy="248.04" r="27.65"/>
</clipPath>
<pattern id="a" width="11.08" height="11.08" patternUnits="userSpaceOnUse">
<path d="m5.54 1v9.08m-4.54-4.54h9.08" fill="none" stroke="rgba(27, 134, 241, 1)" stroke-width="1.39"/>
</pattern>
<clipPath id="h">
<circle cx="118.79" cy="360.01" r="60.94"/>
</clipPath>
</defs>
</svg>
