<?xml version="1.0" encoding="UTF-8"?>
<svg class="w-[1000px] lg:w-full" preserveAspectRatio="none" version="1.1" viewBox="0 0 1440 560" xmlns="http://www.w3.org/2000/svg">
<g fill="none" mask="url(#f)">
<rect width="1440" height="560" fill="rgba(31, 58, 138, 1)"/>
<path d="m242.64 317.75 48.63 47.46-71.227 23.182z" fill="rgba(26, 134, 241, 1)"/>
<rect transform="rotate(-44.37 176.25 165.21)" x="130.15" y="119.11" width="92.2" height="92.2" clip-path="url(#k)" fill="url(#e)"/>
<circle cx="723.42" cy="115.47" r="46.667" stroke="rgba(26, 134, 241, 1)" stroke-dasharray="4, 4"/>
<rect transform="rotate(243.89 1181.1 501.74)" x="1044.6" y="365.18" width="273.12" height="273.12" clip-path="url(#j)" fill="url(#d)"/>
<circle cx="241.05" cy="322.24" r="46.667" fill="rgba(26, 134, 241, 1)"/>
<path d="m1365.4 390.22 28.16-93.28 38.043 98.763z" stroke="rgba(26, 134, 241, 1)" stroke-width="1.98"/>
<rect transform="rotate(203.32 536.84 68.8)" x="506.84" y="38.8" width="60" height="60" clip-path="url(#i)" fill="url(#c)"/>
<rect transform="rotate(114.75 12.48 390.49)" x="-173.52" y="204.49" width="372" height="372" clip-path="url(#h)" fill="url(#b)"/>
<path d="m902.42 396.74 138.38 2.19-144.9 74.614z" fill="rgba(26, 134, 241, 1)"/>
<circle cx="1326.9" cy="156.23" r="48.525" fill="rgba(26, 134, 241, 1)"/>
<rect transform="rotate(-60.97 664.87 153.95)" x="613.07" y="102.15" width="103.6" height="103.6" clip-path="url(#g)" fill="url(#a)"/>
<circle cx="709.15" cy="531.99" r="46.667" stroke="rgba(26, 134, 241, 1)" stroke-dasharray="2, 2" stroke-width="1.31"/>
</g>
<defs>
<mask id="f">
<rect width="1440" height="560" fill="#fff"/>
</mask>
<pattern id="e" width="9.22" height="9.22" patternUnits="userSpaceOnUse">
<path d="M0 9.22L4.61 0L9.22 9.22" fill="none" stroke="rgba(26, 134, 241, 1)"/>
</pattern>
<clipPath id="k">
<circle cx="176.25" cy="165.21" r="23.05"/>
</clipPath>
<pattern id="d" width="11.38" height="11.38" patternUnits="userSpaceOnUse">
<path d="m5.69 1v9.38m-4.69-4.69h9.38" fill="none" stroke="rgba(26, 134, 241, 1)" stroke-width="4.47"/>
</pattern>
<clipPath id="j">
<circle cx="1181.1" cy="501.74" r="68.28"/>
</clipPath>
<pattern id="c" width="6" height="6" patternUnits="userSpaceOnUse">
<path d="m0 6 3-6 3 6" fill="none" stroke="rgba(26, 134, 241, 1)"/>
</pattern>
<clipPath id="i">
<circle cx="536.84" cy="68.8" r="15"/>
</clipPath>
<pattern id="b" width="6" height="6" patternUnits="userSpaceOnUse">
<path d="m0 6 3-6 3 6" fill="none" stroke="rgba(26, 134, 241, 1)"/>
</pattern>
<clipPath id="h">
<circle cx="12.48" cy="390.49" r="93"/>
</clipPath>
<pattern id="a" width="7.4" height="7.4" patternUnits="userSpaceOnUse">
<path d="m3.7 1v5.4m-2.7-2.7h5.4" fill="none" stroke="rgba(26, 134, 241, 1)" stroke-width="1.48"/>
</pattern>
<clipPath id="g">
<circle cx="664.87" cy="153.95" r="25.9"/>
</clipPath>
</defs>
</svg>
